<svg _ngcontent-unx-c124="" xmlns="http://www.w3.org/2000/svg" xmlns:xlink="http://www.w3.org/1999/xlink" width="473.502" height="486.741" viewBox="0 0 473.502 486.741"><defs _ngcontent-unx-c124=""><style _ngcontent-unx-c124=""> .a { fill: #d4ecff; } .b { fill: #5793ce; } .c { fill: #396caa; } .d, .n { fill: #173d7a; } .e { fill: #274f89; } .f { fill: #fff; } .g { fill: #00e4e3; } .h { fill: #e83b1f; } .i { fill: #e2e2e2; } .j { fill: url(#a); } .k { fill: #eaeaea; } .l { fill: #6880a9; } .m { fill: #ffc2b0; } .n { opacity: 0.63; } .o { fill: #ea9c92; } .p { fill: #4813ff; } .q { fill: #693dff; } .r { fill: #03cccb; } .s { fill: #ff2c9c; } </style><radialGradient _ngcontent-unx-c124="" id="a" cx="-6.323" cy="0.107" r="7.399" gradientTransform="translate(0.099) scale(0.803 1)" gradientUnits="objectBoundingBox"><stop _ngcontent-unx-c124="" offset="0" stop-color="#01c8ef"></stop><stop _ngcontent-unx-c124="" offset="0.089" stop-color="#02bee8"></stop><stop _ngcontent-unx-c124="" offset="0.239" stop-color="#07a4d7"></stop><stop _ngcontent-unx-c124="" offset="0.429" stop-color="#107bba"></stop><stop _ngcontent-unx-c124="" offset="0.446" stop-color="#1177b8"></stop><stop _ngcontent-unx-c124="" offset="1" stop-color="#112564"></stop></radialGradient></defs><g _ngcontent-unx-c124="" transform="translate(-268.501 -47.948)"><g _ngcontent-unx-c124="" transform="translate(542.308 88.888)"><path _ngcontent-unx-c124="" d="M638.606,188.722v137.01c0,4.653-3.266,6.538-7.295,4.213L446.207,223.074a16.121,16.121,0,0,1-7.295-12.634V73.428Z" transform="translate(-438.912 -73.428)" class="a"></path></g><path _ngcontent-unx-c124="" d="M465.341,238.119a1.08,1.08,0,0,1-.541-2.015l14.637-8.464a5.4,5.4,0,0,0,2.69-4.666V211.649a1.08,1.08,0,0,1,2.159,0v11.324a7.571,7.571,0,0,1-3.771,6.536l-14.636,8.464A1.071,1.071,0,0,1,465.341,238.119Z" transform="translate(118.776 98.671)" class="b"></path><g _ngcontent-unx-c124="" transform="translate(542.097 330.749)"><g _ngcontent-unx-c124="" transform="translate(0)"><g _ngcontent-unx-c124="" transform="translate(24.624)"><rect _ngcontent-unx-c124="" width="8.911" height="19.229" transform="translate(16.681 0.207) rotate(60.169)" class="b"></rect><path _ngcontent-unx-c124="" d="M470.2,229.857a6.959,6.959,0,0,0-3.133-5.466c-1.739-1.011-3.151-.2-3.157,1.809a6.97,6.97,0,0,0,3.135,5.466C468.781,232.676,470.195,231.866,470.2,229.857Z" transform="translate(-448.158 -223.956)" class="b"></path></g><g _ngcontent-unx-c124="" transform="translate(0 4.961)"><rect _ngcontent-unx-c124="" width="14.439" height="30.159" transform="translate(26.163 0.742) rotate(60.169)" class="b"></rect><path _ngcontent-unx-c124="" d="M455.813,230.282l5.646-3.238a11.535,11.535,0,0,1,4.433,7.73l-5.646,3.238A11.531,11.531,0,0,1,455.813,230.282Z" transform="translate(-428.446 -227.044)" class="c"></path><path _ngcontent-unx-c124="" d="M464.32,236.859A11.288,11.288,0,0,0,459.241,228c-2.815-1.636-5.1-.323-5.114,2.932a11.286,11.286,0,0,0,5.079,8.858C462.021,241.427,464.311,240.114,464.32,236.859Z" transform="translate(-429.469 -226.89)" class="b"></path></g></g><path _ngcontent-unx-c124="" d="M465.9,227.124a.9.9,0,0,0,0-1.706,3.271,3.271,0,0,0-2.956-.01.9.9,0,0,0,0,1.708A3.271,3.271,0,0,0,465.9,227.124Z" transform="translate(-424.492 -223.287)" class="a"></path></g><path _ngcontent-unx-c124="" d="M330.395,300.716a1.09,1.09,0,0,1-.537-.145l-12.82-7.38a3.382,3.382,0,0,1,.061-5.9l83.083-45.49a23.867,23.867,0,0,0,12.407-20.941V117.616a5,5,0,0,0-7.4-4.393l-27.7,15.1a1.079,1.079,0,0,1-1.033-1.894l27.7-15.105a7.16,7.16,0,0,1,10.59,6.289V220.862A26.019,26.019,0,0,1,401.218,243.7l-83.082,45.49a1.225,1.225,0,0,0-.023,2.135l12.82,7.38a1.08,1.08,0,0,1-.54,2.015Z" transform="translate(28.42 37.92)" class="b"></path><g _ngcontent-unx-c124="" transform="translate(367.559 158.481)"><g _ngcontent-unx-c124="" transform="translate(0 0)"><g _ngcontent-unx-c124="" transform="translate(24.624)"><rect _ngcontent-unx-c124="" width="8.911" height="19.229" transform="matrix(0.497, 0.867, -0.867, 0.497, 16.681, 0.207)" class="b"></rect><path _ngcontent-unx-c124="" d="M361.571,122.641a6.966,6.966,0,0,0-3.135-5.466c-1.737-1.009-3.149-.2-3.156,1.809a6.961,6.961,0,0,0,3.135,5.466C360.153,125.461,361.565,124.65,361.571,122.641Z" transform="translate(-339.529 -116.741)" class="b"></path></g><g _ngcontent-unx-c124="" transform="translate(0 4.962)"><rect _ngcontent-unx-c124="" width="14.439" height="30.159" transform="matrix(0.497, 0.867, -0.867, 0.497, 26.163, 0.741)" class="b"></rect><path _ngcontent-unx-c124="" d="M347.185,123.067l5.644-3.238a11.519,11.519,0,0,1,4.433,7.73l-5.645,3.238A11.529,11.529,0,0,1,347.185,123.067Z" transform="translate(-319.818 -119.829)" class="c"></path><path _ngcontent-unx-c124="" d="M355.691,129.642a11.281,11.281,0,0,0-5.079-8.856c-2.815-1.637-5.1-.323-5.114,2.932a11.285,11.285,0,0,0,5.079,8.856C353.392,134.212,355.682,132.9,355.691,129.642Z" transform="translate(-320.841 -119.676)" class="b"></path></g></g><path _ngcontent-unx-c124="" d="M357.267,119.909a.9.9,0,0,0,0-1.708,3.271,3.271,0,0,0-2.956-.008.9.9,0,0,0,0,1.706A3.266,3.266,0,0,0,357.267,119.909Z" transform="translate(-315.864 -116.072)" class="a"></path></g><g _ngcontent-unx-c124="" transform="translate(349.595 329.53)"><rect _ngcontent-unx-c124="" width="8.911" height="19.229" transform="translate(22.042 9.773) rotate(119.832)" class="b"></rect><path _ngcontent-unx-c124="" d="M318.972,229.1a6.966,6.966,0,0,1,3.135-5.466c1.737-1.009,3.149-.2,3.156,1.811a6.97,6.97,0,0,1-3.135,5.466C320.391,231.918,318.978,231.108,318.972,229.1Z" transform="translate(-318.972 -223.198)" class="b"></path><g _ngcontent-unx-c124="" transform="translate(9.22 4.962)"><rect _ngcontent-unx-c124="" width="14.439" height="30.159" transform="matrix(-0.497, 0.867, -0.867, -0.497, 37.446, 15.744)" class="b"></rect><path _ngcontent-unx-c124="" d="M334.789,229.524l-5.646-3.238a11.535,11.535,0,0,0-4.433,7.73l5.646,3.238A11.535,11.535,0,0,0,334.789,229.524Z" transform="translate(-324.71 -226.286)" class="c"></path><path _ngcontent-unx-c124="" d="M326.325,236.1a11.283,11.283,0,0,1,5.081-8.858c2.813-1.636,5.1-.323,5.113,2.932a11.281,11.281,0,0,1-5.079,8.856C328.624,240.669,326.335,239.356,326.325,236.1Z" transform="translate(-323.73 -226.132)" class="b"></path></g><path _ngcontent-unx-c124="" d="M322.479,226.366a.9.9,0,0,1,0-1.706,3.263,3.263,0,0,1,2.955-.01.9.9,0,0,1,0,1.706A3.263,3.263,0,0,1,322.479,226.366Z" transform="translate(-317.217 -222.529)" class="a"></path></g><g _ngcontent-unx-c124="" transform="translate(326.745 296.003)"><path _ngcontent-unx-c124="" d="M492.445,411.213,308.268,304.877c-5.211-3.008-4.557-8.262,1.459-11.736l125.411-72.382c6.016-3.472,15.116-3.85,20.327-.842L639.644,326.251c5.211,3.009,4.557,8.264-1.459,11.736L512.772,410.369C506.756,413.843,497.656,414.22,492.445,411.213Z" transform="translate(-304.751 -192.893)" class="a"></path><path _ngcontent-unx-c124="" d="M643.153,310.426,617.979,307.1,455.463,213.273c-5.211-3.008-14.311-2.63-20.327.844L319.979,280.578l-15.224-2.01v8.638l.014,0c-.1,2,1.038,3.917,3.5,5.336L492.442,398.878c5.211,3.008,14.311,2.632,20.327-.842l125.413-72.382c3.384-1.954,5.071-4.472,4.971-6.835h0Z" transform="translate(-304.748 -196.924)" class="d"></path><path _ngcontent-unx-c124="" d="M521.045,238.589,509.5,231.923H382.558l-62.58,36.107-15.224-2.01v8.638l.014,0c-.1,2,1.038,3.917,3.5,5.336L492.442,386.33a19.048,19.048,0,0,0,10.49,1.967Z" transform="translate(-304.748 -184.377)" class="c"></path><path _ngcontent-unx-c124="" d="M311.511,254.036l-6.756-.892v8.638l.014,0c-.1,2,1.038,3.917,3.5,5.336l3.246,1.873Z" transform="translate(-304.748 -171.501)" class="b"></path><path _ngcontent-unx-c124="" d="M422.722,336.24c4.938,1.872,12,1.464,17.271-1.073V315.9H422.722Z" transform="translate(-233.172 -133.424)" class="e"></path><path _ngcontent-unx-c124="" d="M492.445,395.658,308.268,289.322c-5.211-3.008-4.557-8.262,1.459-11.736L435.139,205.2c6.016-3.472,15.116-3.85,20.327-.842L639.644,310.7c5.211,3.009,4.557,8.263-1.459,11.737L512.772,394.814C506.756,398.288,497.656,398.666,492.445,395.658Z" transform="translate(-304.751 -202.331)" class="a"></path><path _ngcontent-unx-c124="" d="M638.181,288.957,512.768,361.339c-6.016,3.474-15.116,3.85-20.327.842L308.264,255.847a6.848,6.848,0,0,1-3.239-3.543c-.816,2.465.223,4.957,3.239,6.7L492.441,365.337c5.211,3.008,14.311,2.63,20.327-.844l125.413-72.381c4.043-2.336,5.651-5.473,4.7-8.194A9.806,9.806,0,0,1,638.181,288.957Z" transform="translate(-304.747 -172.01)" class="f"></path><g _ngcontent-unx-c124="" transform="translate(73.066 6.549)"><path _ngcontent-unx-c124="" d="M359.009,239.233l-8.333-4.812c-.668-.386-.585-1.06.188-1.507l9.835-5.678a2.9,2.9,0,0,1,2.611-.109l8.334,4.812c.668.386.585,1.06-.188,1.507l-9.837,5.678A2.9,2.9,0,0,1,359.009,239.233Z" transform="translate(-350.225 -193.993)" class="d"></path><path _ngcontent-unx-c124="" d="M367.02,243.857l-8.334-4.811c-.668-.387-.585-1.062.188-1.507l9.837-5.68a2.9,2.9,0,0,1,2.609-.108l8.334,4.811c.668.387.585,1.062-.188,1.507l-9.837,5.68A2.9,2.9,0,0,1,367.02,243.857Z" transform="translate(-345.366 -191.188)" class="d"></path><path _ngcontent-unx-c124="" d="M375.028,248.481,366.7,243.67c-.67-.387-.585-1.062.186-1.507l9.837-5.68a2.908,2.908,0,0,1,2.611-.108l8.333,4.811c.67.387.586,1.062-.186,1.507l-9.837,5.68A2.9,2.9,0,0,1,375.028,248.481Z" transform="translate(-340.506 -188.382)" class="d"></path><path _ngcontent-unx-c124="" d="M386.107,244.317l-8.334-4.811c-.668-.386-.585-1.06.188-1.507l8.257-4.767a2.9,2.9,0,0,1,2.611-.108l8.333,4.811c.668.386.585,1.06-.188,1.507l-8.257,4.767A2.894,2.894,0,0,1,386.107,244.317Z" transform="translate(-333.785 -190.355)" class="d"></path><path _ngcontent-unx-c124="" d="M394.115,248.943l-8.333-4.812c-.67-.386-.585-1.06.186-1.507l8.257-4.767a2.908,2.908,0,0,1,2.611-.108l8.333,4.811c.67.387.586,1.062-.186,1.507l-8.257,4.767A2.9,2.9,0,0,1,394.115,248.943Z" transform="translate(-328.925 -187.549)" class="d"></path><path _ngcontent-unx-c124="" d="M402.126,253.567l-8.334-4.812c-.668-.386-.585-1.06.188-1.507l8.257-4.767a2.9,2.9,0,0,1,2.609-.108l8.334,4.812c.668.386.585,1.06-.188,1.505l-8.257,4.767A2.9,2.9,0,0,1,402.126,253.567Z" transform="translate(-324.065 -184.743)" class="d"></path><path _ngcontent-unx-c124="" d="M410.134,258.19,401.8,253.38c-.67-.387-.587-1.062.186-1.507l8.257-4.767a2.9,2.9,0,0,1,2.611-.109l8.333,4.812c.67.386.587,1.06-.186,1.507l-8.257,4.767A2.9,2.9,0,0,1,410.134,258.19Z" transform="translate(-319.206 -181.937)" class="d"></path><path _ngcontent-unx-c124="" d="M418.145,262.814,409.81,258c-.668-.386-.585-1.06.188-1.507l8.257-4.767a2.894,2.894,0,0,1,2.609-.108l8.334,4.811c.668.387.585,1.06-.188,1.507l-8.257,4.767A2.894,2.894,0,0,1,418.145,262.814Z" transform="translate(-314.346 -179.132)" class="d"></path><path _ngcontent-unx-c124="" d="M426.154,267.44l-8.333-4.812c-.67-.386-.586-1.06.186-1.507l8.257-4.767a2.908,2.908,0,0,1,2.611-.108l8.333,4.811c.67.387.585,1.062-.186,1.507l-8.257,4.767A2.9,2.9,0,0,1,426.154,267.44Z" transform="translate(-309.486 -176.326)" class="d"></path><path _ngcontent-unx-c124="" d="M434.162,272.064l-8.333-4.812c-.668-.386-.585-1.06.188-1.507l8.257-4.766a2.9,2.9,0,0,1,2.609-.109l8.334,4.812c.668.386.585,1.06-.188,1.507l-8.257,4.766A2.9,2.9,0,0,1,434.162,272.064Z" transform="translate(-304.626 -173.52)" class="d"></path><path _ngcontent-unx-c124="" d="M442.173,276.687l-8.334-4.811c-.668-.387-.585-1.062.188-1.507l8.257-4.767a2.9,2.9,0,0,1,2.611-.109l8.333,4.812c.668.386.585,1.06-.188,1.507l-8.255,4.767A2.908,2.908,0,0,1,442.173,276.687Z" transform="translate(-299.767 -170.714)" class="d"></path><path _ngcontent-unx-c124="" d="M450.181,281.311l-8.333-4.811c-.67-.387-.585-1.06.186-1.507l8.257-4.767a2.9,2.9,0,0,1,2.611-.108l8.334,4.811c.668.387.585,1.06-.188,1.507l-8.257,4.767A2.9,2.9,0,0,1,450.181,281.311Z" transform="translate(-294.907 -167.909)" class="d"></path><path _ngcontent-unx-c124="" d="M458.192,285.937l-8.334-4.812c-.668-.386-.585-1.06.188-1.507l8.257-4.767a2.9,2.9,0,0,1,2.611-.108l8.333,4.811c.668.387.585,1.062-.188,1.507l-8.257,4.767A2.9,2.9,0,0,1,458.192,285.937Z" transform="translate(-290.047 -165.103)" class="d"></path><path _ngcontent-unx-c124="" d="M397.907,242.128l-8.333-4.811c-.67-.387-.585-1.062.186-1.507l8.257-4.767a2.9,2.9,0,0,1,2.611-.109l8.333,4.812c.67.386.586,1.06-.186,1.507l-8.257,4.767A2.9,2.9,0,0,1,397.907,242.128Z" transform="translate(-326.624 -191.683)" class="c"></path><path _ngcontent-unx-c124="" d="M389.778,237.436l-8.333-4.812c-.67-.386-.585-1.06.186-1.507l8.257-4.767a2.908,2.908,0,0,1,2.611-.108l8.333,4.811c.67.387.586,1.062-.186,1.507l-8.257,4.767A2.9,2.9,0,0,1,389.778,237.436Z" transform="translate(-331.556 -194.53)" class="c"></path><path _ngcontent-unx-c124="" d="M385.267,234.831,367.32,224.469c-.67-.387-.586-1.062.186-1.507l8.257-4.767a2.9,2.9,0,0,1,2.611-.109l17.947,10.364c.67.386.585,1.06-.188,1.507l-8.255,4.766A2.9,2.9,0,0,1,385.267,234.831Z" transform="translate(-340.128 -199.479)" class="d"></path><path _ngcontent-unx-c124="" d="M389.681,228.376l-14.565-8.41c-.668-.386-.585-1.06.188-1.507l8.257-4.767a2.908,2.908,0,0,1,2.611-.108l14.565,8.41c.668.386.585,1.06-.188,1.507l-8.257,4.767A2.908,2.908,0,0,1,389.681,228.376Z" transform="translate(-335.397 -202.21)" class="d"></path><path _ngcontent-unx-c124="" d="M405.918,246.752l-8.334-4.811c-.668-.386-.585-1.06.188-1.507l8.257-4.767a2.894,2.894,0,0,1,2.609-.108l8.334,4.811c.668.386.585,1.06-.188,1.507l-8.257,4.767A2.894,2.894,0,0,1,405.918,246.752Z" transform="translate(-321.764 -188.877)" class="c"></path><path _ngcontent-unx-c124="" d="M413.926,251.378l-8.333-4.812c-.67-.386-.586-1.06.186-1.507l8.257-4.767a2.9,2.9,0,0,1,2.611-.108l8.333,4.811c.67.387.585,1.062-.186,1.507l-8.257,4.767A2.9,2.9,0,0,1,413.926,251.378Z" transform="translate(-316.905 -186.071)" class="d"></path><path _ngcontent-unx-c124="" d="M421.935,256l-8.333-4.812c-.668-.386-.585-1.06.188-1.507l8.257-4.767a2.9,2.9,0,0,1,2.609-.108l8.334,4.812c.668.386.585,1.06-.188,1.507l-8.257,4.766A2.9,2.9,0,0,1,421.935,256Z" transform="translate(-312.045 -183.266)" class="d"></path><path _ngcontent-unx-c124="" d="M429.946,260.625l-8.334-4.811c-.668-.387-.585-1.062.188-1.507l8.257-4.767a2.9,2.9,0,0,1,2.611-.109L441,254.243c.67.386.585,1.06-.186,1.507l-8.257,4.767A2.9,2.9,0,0,1,429.946,260.625Z" transform="translate(-307.186 -180.46)" class="d"></path><path _ngcontent-unx-c124="" d="M437.954,265.249l-8.333-4.811c-.668-.387-.585-1.062.188-1.507l8.255-4.767a2.9,2.9,0,0,1,2.611-.108l8.334,4.811c.668.386.585,1.06-.188,1.507l-8.257,4.767A2.9,2.9,0,0,1,437.954,265.249Z" transform="translate(-302.326 -177.654)" class="d"></path><path _ngcontent-unx-c124="" d="M445.965,269.875l-8.334-4.812c-.668-.386-.585-1.06.188-1.507l8.257-4.767a2.9,2.9,0,0,1,2.611-.108l8.333,4.811c.668.387.585,1.062-.188,1.507l-8.257,4.767A2.9,2.9,0,0,1,445.965,269.875Z" transform="translate(-297.466 -174.848)" class="d"></path><path _ngcontent-unx-c124="" d="M453.973,274.5l-8.333-4.812c-.67-.386-.585-1.06.186-1.507l8.257-4.766a2.9,2.9,0,0,1,2.611-.109l8.333,4.811c.67.387.586,1.062-.186,1.509l-8.257,4.767A2.908,2.908,0,0,1,453.973,274.5Z" transform="translate(-292.606 -172.043)" class="d"></path><path _ngcontent-unx-c124="" d="M461.984,279.122l-8.334-4.811c-.668-.387-.585-1.062.188-1.507l8.257-4.767a2.9,2.9,0,0,1,2.609-.109l8.334,4.812c.668.386.585,1.06-.188,1.507l-8.257,4.767A2.9,2.9,0,0,1,461.984,279.122Z" transform="translate(-287.747 -169.237)" class="d"></path><path _ngcontent-unx-c124="" d="M469.992,283.746l-8.333-4.811c-.67-.386-.586-1.06.186-1.507l8.257-4.767a2.9,2.9,0,0,1,2.611-.108l8.333,4.811c.67.386.587,1.06-.186,1.507l-8.257,4.767A2.9,2.9,0,0,1,469.992,283.746Z" transform="translate(-282.887 -166.431)" class="d"></path><path _ngcontent-unx-c124="" d="M487.951,294.115l-18.182-10.5c-.67-.387-.585-1.062.186-1.507l8.257-4.767a2.9,2.9,0,0,1,2.611-.109l18.182,10.5c.67.386.586,1.06-.186,1.507l-8.257,4.767A2.9,2.9,0,0,1,487.951,294.115Z" transform="translate(-277.967 -163.591)" class="d"></path><path _ngcontent-unx-c124="" d="M502.474,284.493l-15.348-8.86c-.668-.387-.585-1.062.188-1.507l8.257-4.767a2.9,2.9,0,0,1,2.609-.109l15.348,8.861c.668.387.585,1.06-.188,1.507l-8.257,4.767A2.894,2.894,0,0,1,502.474,284.493Z" transform="translate(-267.435 -168.435)" class="d"></path><path _ngcontent-unx-c124="" d="M419.944,245.849l-8.334-4.812c-.668-.386-.585-1.06.188-1.507l8.257-4.767a2.9,2.9,0,0,1,2.611-.108L431,239.465c.67.387.585,1.062-.188,1.507l-8.255,4.767A2.9,2.9,0,0,1,419.944,245.849Z" transform="translate(-313.254 -189.426)" class="d"></path><path _ngcontent-unx-c124="" d="M411.734,241.108,403.4,236.3c-.67-.387-.585-1.062.186-1.507l8.257-4.767a2.9,2.9,0,0,1,2.611-.109l8.333,4.812c.67.386.586,1.06-.186,1.507L414.345,241A2.9,2.9,0,0,1,411.734,241.108Z" transform="translate(-318.235 -192.302)" class="d"></path><path _ngcontent-unx-c124="" d="M403.527,236.369l-8.334-4.811c-.668-.387-.585-1.062.188-1.509l8.257-4.766a2.9,2.9,0,0,1,2.609-.109l8.334,4.812c.668.386.585,1.06-.188,1.507l-8.257,4.767A2.9,2.9,0,0,1,403.527,236.369Z" transform="translate(-323.215 -195.177)" class="c"></path><path _ngcontent-unx-c124="" d="M395.318,231.631l-8.334-4.812c-.668-.386-.585-1.06.188-1.507l8.257-4.767a2.9,2.9,0,0,1,2.611-.108l8.333,4.811c.668.387.585,1.062-.188,1.507l-8.257,4.767A2.9,2.9,0,0,1,395.318,231.631Z" transform="translate(-328.196 -198.053)" class="d"></path><path _ngcontent-unx-c124="" d="M427.952,250.473l-8.333-4.812c-.67-.386-.585-1.06.188-1.507l8.255-4.767a2.908,2.908,0,0,1,2.611-.108l8.334,4.812c.668.386.585,1.06-.188,1.507l-8.257,4.766A2.9,2.9,0,0,1,427.952,250.473Z" transform="translate(-308.394 -186.62)" class="d"></path><path _ngcontent-unx-c124="" d="M435.963,255.1l-8.334-4.811c-.668-.387-.585-1.062.188-1.507l8.257-4.767a2.9,2.9,0,0,1,2.611-.109l8.333,4.812c.668.386.585,1.06-.188,1.507l-8.257,4.767A2.9,2.9,0,0,1,435.963,255.1Z" transform="translate(-303.535 -183.815)" class="d"></path><path _ngcontent-unx-c124="" d="M443.971,259.72l-8.333-4.811c-.67-.387-.585-1.062.186-1.507l8.257-4.767a2.9,2.9,0,0,1,2.611-.108l8.333,4.811c.67.386.586,1.06-.186,1.507l-8.257,4.767A2.9,2.9,0,0,1,443.971,259.72Z" transform="translate(-298.675 -181.009)" class="d"></path><path _ngcontent-unx-c124="" d="M451.982,264.344l-8.334-4.811c-.668-.386-.585-1.06.188-1.507l8.257-4.767a2.9,2.9,0,0,1,2.609-.108l8.334,4.811c.668.387.585,1.062-.188,1.507l-8.257,4.767A2.894,2.894,0,0,1,451.982,264.344Z" transform="translate(-293.815 -178.203)" class="d"></path><path _ngcontent-unx-c124="" d="M459.991,268.97l-8.333-4.812c-.67-.386-.586-1.06.186-1.507l8.257-4.767a2.908,2.908,0,0,1,2.611-.108l8.333,4.811c.67.387.585,1.062-.186,1.507L462.6,268.86A2.9,2.9,0,0,1,459.991,268.97Z" transform="translate(-288.956 -175.397)" class="d"></path><path _ngcontent-unx-c124="" d="M468,273.593l-8.334-4.811c-.668-.387-.585-1.062.188-1.507l8.257-4.767a2.9,2.9,0,0,1,2.609-.109l8.334,4.812c.668.386.585,1.06-.188,1.507l-8.257,4.767A2.9,2.9,0,0,1,468,273.593Z" transform="translate(-284.096 -172.592)" class="d"></path><path _ngcontent-unx-c124="" d="M476.009,278.217l-8.333-4.811c-.67-.386-.586-1.06.186-1.507l8.257-4.767a2.9,2.9,0,0,1,2.611-.108l8.333,4.811c.67.386.585,1.06-.186,1.507l-8.257,4.767A2.9,2.9,0,0,1,476.009,278.217Z" transform="translate(-279.236 -169.786)" class="d"></path><path _ngcontent-unx-c124="" d="M484.018,282.843l-8.333-4.812c-.668-.386-.585-1.06.188-1.507l8.257-4.767a2.9,2.9,0,0,1,2.609-.108l8.334,4.811c.668.387.585,1.062-.188,1.507l-8.257,4.767A2.9,2.9,0,0,1,484.018,282.843Z" transform="translate(-274.376 -166.98)" class="d"></path><path _ngcontent-unx-c124="" d="M492.029,287.467l-8.334-4.812c-.668-.386-.585-1.06.188-1.507l8.257-4.767a2.908,2.908,0,0,1,2.611-.108l8.333,4.812c.668.386.585,1.06-.188,1.507l-8.255,4.766A2.9,2.9,0,0,1,492.029,287.467Z" transform="translate(-269.517 -164.174)" class="d"></path><path _ngcontent-unx-c124="" d="M415.725,234.411l-8.333-4.812c-.668-.386-.585-1.06.188-1.507l8.257-4.767a2.9,2.9,0,0,1,2.609-.108l8.334,4.811c.668.387.585,1.062-.188,1.507l-8.257,4.767A2.9,2.9,0,0,1,415.725,234.411Z" transform="translate(-315.813 -196.366)" class="d"></path><path _ngcontent-unx-c124="" d="M407.757,229.81,399.422,225c-.668-.386-.585-1.06.188-1.507l8.257-4.767a2.9,2.9,0,0,1,2.611-.108l8.333,4.811c.668.387.585,1.06-.188,1.507l-8.257,4.767A2.9,2.9,0,0,1,407.757,229.81Z" transform="translate(-320.649 -199.158)" class="d"></path><path _ngcontent-unx-c124="" d="M399.786,225.207l-8.333-4.811c-.67-.387-.585-1.062.186-1.507l8.257-4.767a2.9,2.9,0,0,1,2.611-.108l8.333,4.811c.67.386.586,1.06-.186,1.507L402.4,225.1A2.9,2.9,0,0,1,399.786,225.207Z" transform="translate(-325.484 -201.95)" class="d"></path><path _ngcontent-unx-c124="" d="M391.818,220.606l-8.334-4.811c-.668-.387-.585-1.062.188-1.507l8.257-4.767a2.9,2.9,0,0,1,2.609-.109l8.334,4.812c.668.386.585,1.06-.188,1.507l-8.257,4.767A2.9,2.9,0,0,1,391.818,220.606Z" transform="translate(-330.32 -204.741)" class="d"></path><path _ngcontent-unx-c124="" d="M400.013,214.671l-8.334-4.812c-.668-.386-.585-1.06.188-1.507l2.73-1.576a2.9,2.9,0,0,1,2.609-.108l8.334,4.811c.668.387.585,1.062-.188,1.507l-2.73,1.576A2.9,2.9,0,0,1,400.013,214.671Z" transform="translate(-325.347 -206.407)" class="d"></path><path _ngcontent-unx-c124="" d="M410.412,220.674l-8.333-4.811c-.67-.387-.586-1.062.186-1.507L405,212.78a2.9,2.9,0,0,1,2.611-.108l8.333,4.811c.67.386.585,1.06-.186,1.507l-2.73,1.576A2.908,2.908,0,0,1,410.412,220.674Z" transform="translate(-319.037 -202.764)" class="d"></path><path _ngcontent-unx-c124="" d="M418.348,225.256l-8.333-4.811c-.668-.387-.585-1.062.188-1.507l2.728-1.576a2.9,2.9,0,0,1,2.611-.108l8.334,4.811c.668.387.585,1.06-.188,1.507l-2.73,1.576A2.9,2.9,0,0,1,418.348,225.256Z" transform="translate(-314.221 -199.984)" class="d"></path><path _ngcontent-unx-c124="" d="M426.286,229.838l-8.334-4.811c-.668-.387-.585-1.062.188-1.507l2.73-1.576a2.9,2.9,0,0,1,2.611-.108l8.333,4.811c.668.386.585,1.062-.188,1.507l-2.728,1.576A2.9,2.9,0,0,1,426.286,229.838Z" transform="translate(-309.406 -197.204)" class="d"></path><path _ngcontent-unx-c124="" d="M434.221,234.42l-8.333-4.811c-.67-.387-.585-1.06.186-1.507l2.73-1.576a2.9,2.9,0,0,1,2.611-.108l8.333,4.811c.67.387.586,1.062-.186,1.507l-2.73,1.576A2.9,2.9,0,0,1,434.221,234.42Z" transform="translate(-304.591 -194.424)" class="d"></path><path _ngcontent-unx-c124="" d="M478.53,260l-8.334-4.811c-.668-.387-.585-1.06.188-1.507l2.73-1.576a2.9,2.9,0,0,1,2.611-.108l8.333,4.811c.668.387.585,1.062-.188,1.507l-2.728,1.576A2.9,2.9,0,0,1,478.53,260Z" transform="translate(-277.707 -178.902)" class="d"></path><path _ngcontent-unx-c124="" d="M486.465,264.583l-8.333-4.811c-.67-.386-.585-1.06.186-1.507l2.73-1.576a2.9,2.9,0,0,1,2.611-.108l8.333,4.811c.67.387.586,1.062-.186,1.507l-2.73,1.576A2.9,2.9,0,0,1,486.465,264.583Z" transform="translate(-272.892 -176.122)" class="d"></path><path _ngcontent-unx-c124="" d="M494.4,269.165l-8.334-4.811c-.668-.386-.585-1.06.188-1.507l2.73-1.576a2.9,2.9,0,0,1,2.609-.108l8.334,4.811c.668.387.585,1.062-.188,1.507l-2.73,1.576A2.894,2.894,0,0,1,494.4,269.165Z" transform="translate(-268.077 -173.342)" class="d"></path><path _ngcontent-unx-c124="" d="M502.339,273.749l-8.333-4.812c-.67-.386-.586-1.06.186-1.507l2.73-1.576a2.908,2.908,0,0,1,2.611-.108l8.333,4.811c.67.387.585,1.062-.186,1.507l-2.73,1.576A2.9,2.9,0,0,1,502.339,273.749Z" transform="translate(-263.261 -170.562)" class="d"></path><path _ngcontent-unx-c124="" d="M423.736,239.034l-8.334-4.811c-.668-.387-.585-1.062.188-1.507l8.257-4.767a2.9,2.9,0,0,1,2.611-.109l8.333,4.812c.668.386.585,1.06-.188,1.507l-8.257,4.767A2.9,2.9,0,0,1,423.736,239.034Z" transform="translate(-310.953 -193.56)" class="d"></path><path _ngcontent-unx-c124="" d="M431.744,243.658l-8.333-4.811c-.67-.387-.585-1.062.186-1.507l8.257-4.767a2.9,2.9,0,0,1,2.611-.109l8.333,4.812c.67.386.586,1.06-.186,1.507l-8.257,4.767A2.9,2.9,0,0,1,431.744,243.658Z" transform="translate(-306.094 -190.755)" class="d"></path><path _ngcontent-unx-c124="" d="M439.755,248.282l-8.334-4.811c-.668-.386-.585-1.06.188-1.507l8.257-4.767a2.894,2.894,0,0,1,2.609-.108l8.334,4.811c.668.387.585,1.06-.188,1.507l-8.257,4.767A2.894,2.894,0,0,1,439.755,248.282Z" transform="translate(-301.234 -187.949)" class="d"></path><path _ngcontent-unx-c124="" d="M447.763,252.908l-8.333-4.812c-.67-.386-.585-1.06.186-1.507l8.257-4.767a2.908,2.908,0,0,1,2.611-.108l8.333,4.811c.67.387.586,1.062-.186,1.507l-8.257,4.767A2.9,2.9,0,0,1,447.763,252.908Z" transform="translate(-296.374 -185.143)" class="d"></path><path _ngcontent-unx-c124="" d="M455.774,257.531l-8.334-4.811c-.668-.387-.585-1.062.188-1.507l8.257-4.767a2.9,2.9,0,0,1,2.609-.109l8.334,4.812c.668.386.585,1.06-.188,1.507l-8.257,4.767A2.9,2.9,0,0,1,455.774,257.531Z" transform="translate(-291.515 -182.337)" class="d"></path><path _ngcontent-unx-c124="" d="M463.782,262.155l-8.333-4.811c-.67-.387-.586-1.06.186-1.507l8.257-4.767a2.9,2.9,0,0,1,2.611-.108l8.333,4.811c.67.386.585,1.06-.186,1.507l-8.257,4.767A2.9,2.9,0,0,1,463.782,262.155Z" transform="translate(-286.655 -179.532)" class="d"></path><path _ngcontent-unx-c124="" d="M471.791,266.781l-8.333-4.812c-.668-.386-.585-1.06.188-1.507l8.257-4.767a2.894,2.894,0,0,1,2.609-.108l8.334,4.811c.668.387.585,1.062-.188,1.507l-8.257,4.767A2.9,2.9,0,0,1,471.791,266.781Z" transform="translate(-281.795 -176.726)" class="d"></path><path _ngcontent-unx-c124="" d="M479.8,271.4l-8.334-4.812c-.668-.386-.585-1.06.188-1.507l8.257-4.767a2.908,2.908,0,0,1,2.611-.108l8.333,4.811c.67.387.585,1.062-.186,1.507l-8.257,4.767A2.9,2.9,0,0,1,479.8,271.4Z" transform="translate(-276.936 -173.92)" class="d"></path><path _ngcontent-unx-c124="" d="M487.81,276.028l-8.333-4.811c-.668-.387-.585-1.062.188-1.507l8.255-4.767a2.9,2.9,0,0,1,2.611-.109l8.334,4.812c.668.386.585,1.06-.188,1.507l-8.257,4.767A2.908,2.908,0,0,1,487.81,276.028Z" transform="translate(-272.076 -171.114)" class="d"></path><path _ngcontent-unx-c124="" d="M384.065,243.14l-24.543-14.17c-.668-.386-.585-1.06.188-1.507l8.257-4.767a2.894,2.894,0,0,1,2.609-.108l24.543,14.17c.668.386.585,1.06-.188,1.507l-8.257,4.767A2.9,2.9,0,0,1,384.065,243.14Z" transform="translate(-344.858 -196.748)" class="d"></path><path _ngcontent-unx-c124="" d="M482.462,299.949l-24.541-14.17c-.67-.386-.585-1.06.188-1.507l8.255-4.767a2.9,2.9,0,0,1,2.611-.108l24.543,14.17c.668.386.585,1.06-.188,1.507l-8.257,4.767A2.908,2.908,0,0,1,482.462,299.949Z" transform="translate(-285.155 -162.279)" class="d"></path><path _ngcontent-unx-c124="" d="M444.312,288.48l-8.334-4.811c-.668-.386-.585-1.06.188-1.507L446,276.485a2.9,2.9,0,0,1,2.609-.109l8.334,4.812c.668.386.585,1.06-.188,1.507l-9.836,5.678A2.894,2.894,0,0,1,444.312,288.48Z" transform="translate(-298.469 -164.112)" class="d"></path><path _ngcontent-unx-c124="" d="M388.032,255.989,374.7,248.294c-.668-.386-.585-1.06.188-1.507l9.836-5.678a2.9,2.9,0,0,1,2.609-.109l13.328,7.695c.668.387.585,1.062-.188,1.507l-9.835,5.68A2.908,2.908,0,0,1,388.032,255.989Z" transform="translate(-335.646 -185.576)" class="d"></path><path _ngcontent-unx-c124="" d="M438.479,285.115l-13.326-7.695c-.67-.386-.585-1.06.186-1.507l9.837-5.678a2.9,2.9,0,0,1,2.611-.109l13.328,7.695c.668.386.585,1.06-.188,1.507l-9.837,5.678A2.9,2.9,0,0,1,438.479,285.115Z" transform="translate(-305.037 -167.904)" class="d"></path><path _ngcontent-unx-c124="" d="M399.588,262.661l-13.328-7.695c-.668-.386-.585-1.06.188-1.507l9.837-5.678a2.9,2.9,0,0,1,2.609-.109l13.328,7.695c.668.386.585,1.06-.188,1.507l-9.837,5.678A2.9,2.9,0,0,1,399.588,262.661Z" transform="translate(-328.635 -181.528)" class="d"></path><path _ngcontent-unx-c124="" d="M398.781,247.606l57.942,33.452a.794.794,0,0,1,0,1.5l-10.031,5.791a2.879,2.879,0,0,1-2.6,0L386.146,254.9Z" transform="translate(-328.43 -181.41)" class="d"></path><path _ngcontent-unx-c124="" d="M465.9,292.277l9.282,5.358c.548.316.479.869-.154,1.236l-4.023,2.323a2.382,2.382,0,0,1-2.14.088l-9.282-5.358c-.548-.316-.479-.871.154-1.236l4.023-2.323A2.377,2.377,0,0,1,465.9,292.277Z" transform="translate(-284.095 -154.436)" class="d"></path><path _ngcontent-unx-c124="" d="M457.828,287.614l9.282,5.359c.548.318.48.871-.154,1.236l-4.023,2.323a2.372,2.372,0,0,1-2.14.088l-9.282-5.358c-.548-.317-.479-.869.154-1.236l4.023-2.323A2.382,2.382,0,0,1,457.828,287.614Z" transform="translate(-288.995 -157.265)" class="d"></path><path _ngcontent-unx-c124="" d="M449.818,282.99l9.284,5.358c.548.317.479.871-.154,1.236l-4.023,2.323a2.377,2.377,0,0,1-2.14.088l-9.282-5.359c-.548-.316-.48-.871.153-1.236l4.025-2.323A2.379,2.379,0,0,1,449.818,282.99Z" transform="translate(-293.855 -160.07)" class="d"></path><path _ngcontent-unx-c124="" d="M462.251,285.06l9.282,5.36c.548.317.48.869-.154,1.236l-4.023,2.323a2.382,2.382,0,0,1-2.14.088l-9.282-5.36c-.548-.316-.479-.869.154-1.234l4.023-2.323A2.378,2.378,0,0,1,462.251,285.06Z" transform="translate(-286.311 -158.814)" class="d"></path></g></g><g _ngcontent-unx-c124="" transform="translate(526.871 98.272)"><path _ngcontent-unx-c124="" d="M629,194.562v137.01c0,4.651-3.265,6.538-7.295,4.211L436.6,228.914a16.126,16.126,0,0,1-7.295-12.635V79.268Z" transform="translate(-429.304 -79.268)" class="g"></path></g><g _ngcontent-unx-c124="" transform="translate(509.246 70.872)"><g _ngcontent-unx-c124="" transform="translate(2.053 10.124)"><g _ngcontent-unx-c124="" transform="translate(0 32.42)"><path _ngcontent-unx-c124="" d="M619.307,203.987V341c0,4.652-3.267,6.538-7.295,4.211L426.908,238.339a16.123,16.123,0,0,1-7.295-12.634V88.693Z" transform="translate(-419.613 -88.693)" class="c"></path></g><path _ngcontent-unx-c124="" d="M419.613,73.724v27.212L619.307,216.229V189.017a16.123,16.123,0,0,0-7.295-12.634L426.908,69.512C422.879,67.186,419.613,69.072,419.613,73.724ZM600.206,178.594c0-1.92,1.348-2.7,3.013-1.738a6.662,6.662,0,0,1,3.013,5.217c0,1.922-1.35,2.7-3.013,1.74A6.658,6.658,0,0,1,600.206,178.594Zm-8.345-4.817c0-1.922,1.348-2.7,3.013-1.74a6.662,6.662,0,0,1,3.013,5.219c0,1.92-1.35,2.7-3.013,1.738A6.657,6.657,0,0,1,591.861,173.777Zm-18.183-10.5c0-1.922,1.348-2.7,3.013-1.739a6.657,6.657,0,0,1,3.013,5.217c0,1.922-1.35,2.7-3.013,1.738A6.652,6.652,0,0,1,573.677,163.279Zm-8.346-4.819c0-1.92,1.35-2.7,3.013-1.738a6.657,6.657,0,0,1,3.013,5.217c0,1.922-1.348,2.7-3.013,1.74A6.662,6.662,0,0,1,565.332,158.46Zm-18.183-10.5c0-1.922,1.35-2.7,3.013-1.74a6.657,6.657,0,0,1,3.013,5.217c0,1.922-1.348,2.7-3.013,1.74A6.662,6.662,0,0,1,547.148,147.963Zm-8.344-4.819c0-1.922,1.348-2.7,3.011-1.74a6.658,6.658,0,0,1,3.013,5.219c0,1.92-1.348,2.7-3.013,1.738A6.655,6.655,0,0,1,538.8,143.145Zm-18.184-10.5c0-1.922,1.348-2.7,3.013-1.738a6.655,6.655,0,0,1,3.011,5.217c0,1.922-1.348,2.7-3.011,1.738A6.652,6.652,0,0,1,520.621,132.646Zm-8.345-4.819c0-1.92,1.348-2.7,3.013-1.738a6.662,6.662,0,0,1,3.013,5.217c0,1.922-1.35,2.7-3.013,1.74A6.658,6.658,0,0,1,512.276,127.828Zm-18.183-10.5c0-1.922,1.348-2.7,3.013-1.74a6.662,6.662,0,0,1,3.013,5.219c0,1.92-1.35,2.7-3.013,1.738A6.657,6.657,0,0,1,494.092,117.331Zm-8.345-4.819c0-1.922,1.35-2.7,3.013-1.74a6.658,6.658,0,0,1,3.013,5.219c0,1.92-1.348,2.7-3.013,1.738A6.659,6.659,0,0,1,485.747,112.512Zm-18.184-10.5c0-1.92,1.35-2.7,3.013-1.739a6.655,6.655,0,0,1,3.013,5.217c0,1.922-1.348,2.7-3.013,1.739A6.657,6.657,0,0,1,467.563,102.014Zm-8.345-4.819c0-1.92,1.35-2.7,3.013-1.738a6.657,6.657,0,0,1,3.013,5.217c0,1.922-1.348,2.7-3.013,1.74A6.662,6.662,0,0,1,459.218,97.195ZM441.036,86.7c0-1.922,1.348-2.7,3.011-1.74a6.658,6.658,0,0,1,3.013,5.219c0,1.92-1.348,2.7-3.013,1.739A6.66,6.66,0,0,1,441.036,86.7Zm-8.345-4.819c0-1.922,1.348-2.7,3.013-1.738a6.657,6.657,0,0,1,3.013,5.217c0,1.922-1.35,2.7-3.013,1.738A6.652,6.652,0,0,1,432.69,81.879Z" transform="translate(-419.613 -68.516)" class="c"></path><g _ngcontent-unx-c124="" transform="translate(28.354 35.114)"><path _ngcontent-unx-c124="" d="M439.257,95.934l138.992,80.247c1.1.636,2-.039,2-1.51h0a4.782,4.782,0,0,0-2-3.814L439.257,90.609c-1.1-.636-2,.04-2,1.51h0A4.782,4.782,0,0,0,439.257,95.934Z" transform="translate(-437.26 -90.37)" class="h"></path></g><g _ngcontent-unx-c124="" transform="translate(27.521 75.698)"><path _ngcontent-unx-c124="" d="M436.741,127.666l14.219,8.21V123.838l-14.219-8.209Z" transform="translate(-436.741 -115.628)" class="b"></path><g _ngcontent-unx-c124="" transform="translate(21.739 12.551)"><path _ngcontent-unx-c124="" d="M450.271,135.477l14.219,8.21V131.649l-14.219-8.21Z" transform="translate(-450.271 -123.44)" class="b"></path></g><g _ngcontent-unx-c124="" transform="translate(0 19.655)"><path _ngcontent-unx-c124="" d="M436.741,139.9l14.219,8.21V136.07l-14.219-8.209Z" transform="translate(-436.741 -127.861)" class="b"></path></g><g _ngcontent-unx-c124="" transform="translate(21.739 32.206)"><path _ngcontent-unx-c124="" d="M450.271,147.71l14.219,8.209V143.882l-14.219-8.21Z" transform="translate(-450.271 -135.672)" class="b"></path></g><g _ngcontent-unx-c124="" transform="translate(43.478 44.757)"><path _ngcontent-unx-c124="" d="M463.8,155.522l14.219,8.21V151.693L463.8,143.484Z" transform="translate(-463.801 -143.484)" class="i"></path></g><g _ngcontent-unx-c124="" transform="translate(65.217 57.308)"><path _ngcontent-unx-c124="" d="M477.331,163.333l14.219,8.21V159.5l-14.219-8.21Z" transform="translate(-477.331 -151.295)" class="i"></path></g><g _ngcontent-unx-c124="" transform="translate(86.956 69.859)"><path _ngcontent-unx-c124="" d="M490.861,171.145l14.219,8.21V167.316l-14.219-8.21Z" transform="translate(-490.861 -159.107)" class="i"></path></g><g _ngcontent-unx-c124="" transform="translate(108.695 82.41)"><path _ngcontent-unx-c124="" d="M504.39,178.956l14.219,8.21V175.128l-14.219-8.21Z" transform="translate(-504.39 -166.918)" class="i"></path></g><g _ngcontent-unx-c124="" transform="translate(130.434 94.961)"><path _ngcontent-unx-c124="" d="M517.92,186.767l14.219,8.21V182.939L517.92,174.73Z" transform="translate(-517.92 -174.73)" class="i"></path></g><g _ngcontent-unx-c124="" transform="translate(0 39.31)"><path _ngcontent-unx-c124="" d="M436.741,152.131l14.219,8.21V148.3l-14.219-8.21Z" transform="translate(-436.741 -140.094)" class="b"></path></g><g _ngcontent-unx-c124="" transform="translate(21.739 51.861)"><path _ngcontent-unx-c124="" d="M450.271,159.943l14.219,8.21V156.115l-14.219-8.21Z" transform="translate(-450.271 -147.905)" class="b"></path></g><g _ngcontent-unx-c124="" transform="translate(43.478 64.412)"><path _ngcontent-unx-c124="" d="M463.8,167.754l14.219,8.21V163.926l-14.219-8.21Z" transform="translate(-463.801 -155.716)" class="i"></path></g><g _ngcontent-unx-c124="" transform="translate(65.217 76.962)"><path _ngcontent-unx-c124="" d="M477.331,175.566l14.219,8.21V171.738l-14.219-8.21Z" transform="translate(-477.331 -163.528)" class="i"></path></g><g _ngcontent-unx-c124="" transform="translate(86.956 89.514)"><path _ngcontent-unx-c124="" d="M490.861,183.377l14.219,8.21V179.549l-14.219-8.21Z" transform="translate(-490.861 -171.339)" class="i"></path></g><g _ngcontent-unx-c124="" transform="translate(108.695 102.065)"><path _ngcontent-unx-c124="" d="M504.39,191.189l14.219,8.21V187.36l-14.219-8.209Z" transform="translate(-504.39 -179.151)" class="i"></path></g><g _ngcontent-unx-c124="" transform="translate(130.434 114.615)"><path _ngcontent-unx-c124="" d="M517.92,199l14.219,8.21V195.172l-14.219-8.21Z" transform="translate(-517.92 -186.962)" class="i"></path></g><g _ngcontent-unx-c124="" transform="translate(0 58.965)"><path _ngcontent-unx-c124="" d="M436.741,164.364l14.219,8.21V160.536l-14.219-8.21Z" transform="translate(-436.741 -152.326)" class="b"></path></g><g _ngcontent-unx-c124="" transform="translate(21.739 71.515)"><path _ngcontent-unx-c124="" d="M450.271,172.176l14.219,8.21V168.347l-14.219-8.21Z" transform="translate(-450.271 -160.138)" class="b"></path></g><g _ngcontent-unx-c124="" transform="translate(43.478 84.067)"><path _ngcontent-unx-c124="" d="M463.8,179.987l14.219,8.21V176.159l-14.219-8.21Z" transform="translate(-463.801 -167.949)" class="i"></path></g><g _ngcontent-unx-c124="" transform="translate(65.217 96.617)"><path _ngcontent-unx-c124="" d="M477.331,187.8l14.219,8.21V183.97l-14.219-8.21Z" transform="translate(-477.331 -175.761)" class="i"></path></g><g _ngcontent-unx-c124="" transform="translate(86.956 109.168)"><path _ngcontent-unx-c124="" d="M490.861,195.61l14.219,8.21V191.782l-14.219-8.21Z" transform="translate(-490.861 -183.572)" class="i"></path></g><g _ngcontent-unx-c124="" transform="translate(108.695 121.719)"><path _ngcontent-unx-c124="" d="M504.39,203.421l14.219,8.21V199.593l-14.219-8.21Z" transform="translate(-504.39 -191.383)" class="i"></path></g><g _ngcontent-unx-c124="" transform="translate(130.434 134.27)"><path _ngcontent-unx-c124="" d="M517.92,211.233l14.219,8.21V207.4l-14.219-8.21Z" transform="translate(-517.92 -199.195)" class="i"></path></g><g _ngcontent-unx-c124="" transform="translate(0 78.62)"><path _ngcontent-unx-c124="" d="M436.741,176.6l14.219,8.21V172.769l-14.219-8.209Z" transform="translate(-436.741 -164.559)" class="b"></path></g><g _ngcontent-unx-c124="" transform="translate(21.739 91.17)"><path _ngcontent-unx-c124="" d="M450.271,184.408l14.219,8.21V180.58l-14.219-8.209Z" transform="translate(-450.271 -172.371)" class="b"></path></g><g _ngcontent-unx-c124="" transform="translate(43.478 103.721)"><path _ngcontent-unx-c124="" d="M463.8,192.22l14.219,8.21V188.391l-14.219-8.21Z" transform="translate(-463.801 -180.182)" class="i"></path></g><g _ngcontent-unx-c124="" transform="translate(65.217 116.272)"><path _ngcontent-unx-c124="" d="M477.331,200.031l14.219,8.21V196.2l-14.219-8.21Z" transform="translate(-477.331 -187.993)" class="i"></path></g><g _ngcontent-unx-c124="" transform="translate(86.956 128.823)"><path _ngcontent-unx-c124="" d="M490.861,207.843l14.219,8.209V204.014l-14.219-8.21Z" transform="translate(-490.861 -195.805)" class="i"></path></g><g _ngcontent-unx-c124="" transform="translate(108.695 141.374)"><path _ngcontent-unx-c124="" d="M504.39,215.654l14.219,8.21V211.826l-14.219-8.21Z" transform="translate(-504.39 -203.616)" class="i"></path></g><g _ngcontent-unx-c124="" transform="translate(130.434 153.925)"><path _ngcontent-unx-c124="" d="M517.92,223.465l14.219,8.21V219.637l-14.219-8.21Z" transform="translate(-517.92 -211.428)" class="i"></path></g></g></g><g _ngcontent-unx-c124="" transform="translate(197.471 299.122)"><path _ngcontent-unx-c124="" d="M541.311,250.068l2.076-1.243-2.151-.444Z" transform="translate(-541.236 -248.381)" class="i"></path></g><g _ngcontent-unx-c124="" transform="translate(0 11.355)"><g _ngcontent-unx-c124="" transform="translate(0 32.419)"><path _ngcontent-unx-c124="" d="M618.029,204.753V341.765c0,4.652-3.267,6.538-7.295,4.211L425.63,239.106a16.124,16.124,0,0,1-7.295-12.635V89.459Z" transform="translate(-418.335 -89.459)" class="a"></path></g><g _ngcontent-unx-c124="" transform="translate(13.076 11.188)"><g _ngcontent-unx-c124="" transform="translate(167.51 96.741)"><path _ngcontent-unx-c124="" d="M532.5,136.457a2.689,2.689,0,0,0-.324,1.356,6.671,6.671,0,0,0,3.019,5.228,2.785,2.785,0,0,0,1.245.4c-.495.861-1.509,1.07-2.695.387a6.678,6.678,0,0,1-3.019-5.23C530.727,137.19,531.457,136.4,532.5,136.457Z" transform="translate(-530.727 -136.454)" class="c"></path></g><g _ngcontent-unx-c124="" transform="translate(159.172 91.92)"><path _ngcontent-unx-c124="" d="M527.312,133.457a2.671,2.671,0,0,0-.326,1.356,6.676,6.676,0,0,0,3.019,5.23,2.787,2.787,0,0,0,1.245.4c-.493.861-1.509,1.072-2.693.387a6.672,6.672,0,0,1-3.019-5.23C525.538,134.19,526.267,133.4,527.312,133.457Z" transform="translate(-525.538 -133.454)" class="c"></path></g><g _ngcontent-unx-c124="" transform="translate(140.982 81.42)"><path _ngcontent-unx-c124="" d="M515.991,126.922a2.672,2.672,0,0,0-.326,1.356,6.681,6.681,0,0,0,3.019,5.23,2.793,2.793,0,0,0,1.245.4c-.493.861-1.509,1.072-2.693.387a6.671,6.671,0,0,1-3.019-5.23C514.217,127.655,514.947,126.867,515.991,126.922Z" transform="translate(-514.217 -126.919)" class="c"></path></g><g _ngcontent-unx-c124="" transform="translate(132.643 76.6)"><path _ngcontent-unx-c124="" d="M510.8,123.922a2.676,2.676,0,0,0-.326,1.356,6.676,6.676,0,0,0,3.021,5.23,2.781,2.781,0,0,0,1.245.4c-.495.861-1.51,1.072-2.695.387a6.671,6.671,0,0,1-3.019-5.228C509.027,124.655,509.756,123.867,510.8,123.922Z" transform="translate(-509.027 -123.919)" class="c"></path></g><g _ngcontent-unx-c124="" transform="translate(114.453 66.1)"><path _ngcontent-unx-c124="" d="M499.48,117.387a2.689,2.689,0,0,0-.325,1.356,6.676,6.676,0,0,0,3.019,5.23,2.781,2.781,0,0,0,1.245.4c-.495.861-1.51,1.072-2.695.387a6.671,6.671,0,0,1-3.019-5.228C497.706,118.12,498.435,117.332,499.48,117.387Z" transform="translate(-497.706 -117.384)" class="c"></path></g><g _ngcontent-unx-c124="" transform="translate(106.114 61.28)"><path _ngcontent-unx-c124="" d="M494.29,114.387a2.693,2.693,0,0,0-.325,1.356,6.671,6.671,0,0,0,3.019,5.23,2.805,2.805,0,0,0,1.245.4c-.495.861-1.509,1.07-2.694.386a6.671,6.671,0,0,1-3.019-5.228C492.516,115.12,493.245,114.332,494.29,114.387Z" transform="translate(-492.516 -114.384)" class="c"></path></g><g _ngcontent-unx-c124="" transform="translate(87.924 50.78)"><path _ngcontent-unx-c124="" d="M482.969,107.852a2.7,2.7,0,0,0-.325,1.356,6.671,6.671,0,0,0,3.019,5.23,2.781,2.781,0,0,0,1.245.4c-.495.863-1.509,1.072-2.694.387A6.675,6.675,0,0,1,481.2,110C481.2,108.585,481.924,107.8,482.969,107.852Z" transform="translate(-481.195 -107.849)" class="c"></path></g><g _ngcontent-unx-c124="" transform="translate(79.587 45.96)"><path _ngcontent-unx-c124="" d="M477.778,104.852a2.7,2.7,0,0,0-.325,1.358,6.671,6.671,0,0,0,3.019,5.228,2.805,2.805,0,0,0,1.245.4c-.493.861-1.509,1.07-2.693.386A6.671,6.671,0,0,1,476.006,107C476.006,105.586,476.735,104.8,477.778,104.852Z" transform="translate(-476.006 -104.849)" class="c"></path></g><g _ngcontent-unx-c124="" transform="translate(61.397 35.459)"><path _ngcontent-unx-c124="" d="M466.459,98.317a2.68,2.68,0,0,0-.326,1.356,6.671,6.671,0,0,0,3.019,5.23,2.806,2.806,0,0,0,1.245.4c-.493.861-1.509,1.07-2.693.386a6.671,6.671,0,0,1-3.019-5.228C464.685,99.051,465.414,98.264,466.459,98.317Z" transform="translate(-464.685 -98.314)" class="c"></path></g><g _ngcontent-unx-c124="" transform="translate(53.058 30.641)"><path _ngcontent-unx-c124="" d="M461.269,95.318a2.672,2.672,0,0,0-.326,1.356,6.675,6.675,0,0,0,3.019,5.228,2.8,2.8,0,0,0,1.247.4c-.495.861-1.51,1.07-2.695.387a6.676,6.676,0,0,1-3.019-5.23C459.495,96.051,460.224,95.263,461.269,95.318Z" transform="translate(-459.495 -95.315)" class="c"></path></g><g _ngcontent-unx-c124="" transform="translate(34.868 20.141)"><path _ngcontent-unx-c124="" d="M449.948,88.783a2.671,2.671,0,0,0-.326,1.356,6.673,6.673,0,0,0,3.021,5.228,2.806,2.806,0,0,0,1.245.4c-.495.861-1.51,1.07-2.695.387a6.676,6.676,0,0,1-3.019-5.23C448.174,89.516,448.9,88.728,449.948,88.783Z" transform="translate(-448.174 -88.78)" class="c"></path></g><g _ngcontent-unx-c124="" transform="translate(26.529 15.32)"><path _ngcontent-unx-c124="" d="M444.758,85.783a2.689,2.689,0,0,0-.325,1.356,6.671,6.671,0,0,0,3.019,5.228,2.765,2.765,0,0,0,1.245.4c-.495.861-1.509,1.07-2.694.387a6.674,6.674,0,0,1-3.019-5.23C442.984,86.516,443.713,85.728,444.758,85.783Z" transform="translate(-442.984 -85.78)" class="c"></path></g><g _ngcontent-unx-c124="" transform="translate(8.339 4.82)"><path _ngcontent-unx-c124="" d="M433.437,79.248a2.689,2.689,0,0,0-.325,1.356,6.671,6.671,0,0,0,3.019,5.228,2.785,2.785,0,0,0,1.245.4c-.495.861-1.509,1.07-2.694.387a6.674,6.674,0,0,1-3.019-5.23C431.663,79.981,432.392,79.193,433.437,79.248Z" transform="translate(-431.663 -79.245)" class="c"></path></g><path _ngcontent-unx-c124="" d="M428.247,76.248a2.689,2.689,0,0,0-.325,1.356,6.676,6.676,0,0,0,3.019,5.23,2.781,2.781,0,0,0,1.245.4c-.495.861-1.509,1.072-2.695.387a6.676,6.676,0,0,1-3.019-5.23C426.473,76.981,427.2,76.193,428.247,76.248Z" transform="translate(-426.473 -76.245)" class="c"></path></g><path _ngcontent-unx-c124="" d="M418.335,74.489V101.7L618.029,216.995V189.783a16.123,16.123,0,0,0-7.295-12.634L425.63,70.278C421.6,67.953,418.335,69.838,418.335,74.489ZM598.927,179.362c0-1.922,1.35-2.7,3.013-1.74a6.657,6.657,0,0,1,3.013,5.217c0,1.922-1.348,2.7-3.013,1.74A6.661,6.661,0,0,1,598.927,179.362Zm-8.344-4.819c0-1.922,1.348-2.7,3.011-1.738a6.652,6.652,0,0,1,3.013,5.217c0,1.92-1.348,2.7-3.013,1.738A6.658,6.658,0,0,1,590.583,174.543Zm-18.184-10.5c0-1.922,1.348-2.7,3.013-1.738a6.658,6.658,0,0,1,3.011,5.217c0,1.922-1.348,2.7-3.011,1.74A6.658,6.658,0,0,1,572.4,164.045Zm-8.346-4.819c0-1.92,1.348-2.7,3.013-1.739a6.662,6.662,0,0,1,3.013,5.217c0,1.922-1.35,2.7-3.013,1.74A6.658,6.658,0,0,1,564.054,159.226Zm-18.184-10.5c0-1.922,1.348-2.7,3.013-1.74a6.662,6.662,0,0,1,3.013,5.219c0,1.92-1.35,2.7-3.013,1.739A6.657,6.657,0,0,1,545.87,148.729Zm-8.345-4.819c0-1.922,1.35-2.7,3.013-1.738a6.652,6.652,0,0,1,3.013,5.217c0,1.922-1.348,2.7-3.013,1.738A6.659,6.659,0,0,1,537.525,143.91Zm-18.184-10.5c0-1.922,1.35-2.7,3.013-1.738a6.655,6.655,0,0,1,3.013,5.217c0,1.922-1.348,2.7-3.013,1.74A6.662,6.662,0,0,1,519.341,133.412ZM511,128.595c0-1.922,1.348-2.7,3.011-1.74a6.658,6.658,0,0,1,3.013,5.217c0,1.922-1.348,2.7-3.013,1.74A6.66,6.66,0,0,1,511,128.595Zm-18.184-10.5c0-1.922,1.348-2.7,3.011-1.74a6.658,6.658,0,0,1,3.013,5.219c0,1.92-1.348,2.7-3.013,1.738A6.66,6.66,0,0,1,492.814,118.1Zm-8.345-4.819c0-1.922,1.348-2.7,3.013-1.739a6.659,6.659,0,0,1,3.013,5.217c0,1.922-1.35,2.7-3.013,1.739A6.653,6.653,0,0,1,484.469,113.278Zm-18.184-10.5c0-1.92,1.348-2.7,3.013-1.739a6.662,6.662,0,0,1,3.013,5.217c0,1.922-1.35,2.7-3.013,1.74A6.658,6.658,0,0,1,466.285,102.779Zm-8.345-4.817c0-1.922,1.348-2.7,3.013-1.74a6.662,6.662,0,0,1,3.013,5.219c0,1.92-1.35,2.7-3.013,1.739A6.657,6.657,0,0,1,457.94,97.962Zm-18.184-10.5c0-1.922,1.35-2.7,3.013-1.74a6.662,6.662,0,0,1,3.013,5.219c0,1.92-1.35,2.7-3.013,1.739A6.662,6.662,0,0,1,439.756,87.464Zm-8.345-4.819c0-1.922,1.35-2.7,3.013-1.738a6.655,6.655,0,0,1,3.013,5.217c0,1.922-1.348,2.7-3.013,1.74A6.662,6.662,0,0,1,431.411,82.645Z" transform="translate(-418.335 -69.282)" class="b"></path><g _ngcontent-unx-c124="" transform="translate(28.354 35.114)"><path _ngcontent-unx-c124="" d="M437.979,96.7l138.992,80.246c1.1.636,2-.039,2-1.509h0a4.783,4.783,0,0,0-2-3.816L437.979,91.375c-1.1-.636-2,.04-2,1.51h0A4.783,4.783,0,0,0,437.979,96.7Z" transform="translate(-435.982 -91.136)" class="c"></path></g><g _ngcontent-unx-c124="" transform="translate(27.521 75.697)"><path _ngcontent-unx-c124="" d="M435.463,128.432l14.219,8.21V124.6l-14.219-8.21Z" transform="translate(-435.463 -116.394)" class="b"></path><g _ngcontent-unx-c124="" transform="translate(21.739 12.551)"><path _ngcontent-unx-c124="" d="M448.993,136.244l14.219,8.209V132.415l-14.219-8.21Z" transform="translate(-448.993 -124.206)" class="b"></path></g><g _ngcontent-unx-c124="" transform="translate(0 19.655)"><path _ngcontent-unx-c124="" d="M435.463,140.665l14.219,8.209V136.837l-14.219-8.21Z" transform="translate(-435.463 -128.627)" class="b"></path></g><g _ngcontent-unx-c124="" transform="translate(21.739 32.206)"><path _ngcontent-unx-c124="" d="M448.993,148.476l14.219,8.21V144.648l-14.219-8.209Z" transform="translate(-448.993 -136.439)" class="b"></path></g><g _ngcontent-unx-c124="" transform="translate(43.478 44.757)"><path _ngcontent-unx-c124="" d="M462.523,156.288l14.219,8.21V152.459l-14.219-8.21Z" transform="translate(-462.523 -144.25)" class="f"></path></g><g _ngcontent-unx-c124="" transform="translate(65.217 57.308)"><path _ngcontent-unx-c124="" d="M476.052,164.1l14.219,8.21V160.271l-14.219-8.209Z" transform="translate(-476.052 -152.061)" class="f"></path></g><g _ngcontent-unx-c124="" transform="translate(86.956 69.859)"><path _ngcontent-unx-c124="" d="M489.582,171.911l14.219,8.21V168.082l-14.219-8.209Z" transform="translate(-489.582 -159.873)" class="f"></path></g><g _ngcontent-unx-c124="" transform="translate(108.695 82.41)"><path _ngcontent-unx-c124="" d="M503.112,179.722l14.219,8.21V175.894l-14.219-8.21Z" transform="translate(-503.112 -167.684)" class="f"></path></g><g _ngcontent-unx-c124="" transform="translate(130.433 94.961)"><path _ngcontent-unx-c124="" d="M516.642,187.534l14.219,8.21V183.705L516.642,175.5Z" transform="translate(-516.642 -175.496)" class="f"></path></g><g _ngcontent-unx-c124="" transform="translate(0 39.31)"><path _ngcontent-unx-c124="" d="M435.463,152.9l14.219,8.21V149.069l-14.219-8.21Z" transform="translate(-435.463 -140.86)" class="b"></path></g><g _ngcontent-unx-c124="" transform="translate(21.739 51.861)"><path _ngcontent-unx-c124="" d="M448.993,160.709l14.219,8.209V156.881l-14.219-8.209Z" transform="translate(-448.993 -148.671)" class="b"></path></g><g _ngcontent-unx-c124="" transform="translate(43.478 64.412)"><path _ngcontent-unx-c124="" d="M462.523,168.52l14.219,8.21V164.692l-14.219-8.209Z" transform="translate(-462.523 -156.483)" class="f"></path></g><g _ngcontent-unx-c124="" transform="translate(65.217 76.963)"><path _ngcontent-unx-c124="" d="M476.052,176.332l14.219,8.209V172.5l-14.219-8.21Z" transform="translate(-476.052 -164.294)" class="f"></path></g><g _ngcontent-unx-c124="" transform="translate(86.956 89.514)"><path _ngcontent-unx-c124="" d="M489.582,184.143l14.219,8.21V180.315l-14.219-8.21Z" transform="translate(-489.582 -172.105)" class="f"></path></g><g _ngcontent-unx-c124="" transform="translate(108.695 102.065)"><path _ngcontent-unx-c124="" d="M503.112,191.955l14.219,8.21V188.126l-14.219-8.21Z" transform="translate(-503.112 -179.917)" class="f"></path></g><g _ngcontent-unx-c124="" transform="translate(130.433 114.615)"><path _ngcontent-unx-c124="" d="M516.642,199.766l14.219,8.209V195.938l-14.219-8.21Z" transform="translate(-516.642 -187.728)" class="f"></path></g><g _ngcontent-unx-c124="" transform="translate(0 58.965)"><path _ngcontent-unx-c124="" d="M435.463,165.13l14.219,8.209V161.3l-14.219-8.21Z" transform="translate(-435.463 -153.092)" class="b"></path></g><g _ngcontent-unx-c124="" transform="translate(21.739 71.515)"><path _ngcontent-unx-c124="" d="M448.993,172.942l14.219,8.21V169.113l-14.219-8.21Z" transform="translate(-448.993 -160.904)" class="b"></path></g><g _ngcontent-unx-c124="" transform="translate(43.478 84.067)"><path _ngcontent-unx-c124="" d="M462.523,180.753l14.219,8.209V176.925l-14.219-8.209Z" transform="translate(-462.523 -168.715)" class="f"></path></g><g _ngcontent-unx-c124="" transform="translate(65.217 96.617)"><path _ngcontent-unx-c124="" d="M476.052,188.565l14.219,8.21V184.736l-14.219-8.21Z" transform="translate(-476.052 -176.527)" class="f"></path></g><g _ngcontent-unx-c124="" transform="translate(86.956 109.168)"><path _ngcontent-unx-c124="" d="M489.582,196.376l14.219,8.21V192.548l-14.219-8.21Z" transform="translate(-489.582 -184.338)" class="f"></path></g><g _ngcontent-unx-c124="" transform="translate(108.695 121.72)"><path _ngcontent-unx-c124="" d="M503.112,204.187l14.219,8.21V200.359l-14.219-8.209Z" transform="translate(-503.112 -192.15)" class="f"></path></g><g _ngcontent-unx-c124="" transform="translate(130.433 134.27)"><path _ngcontent-unx-c124="" d="M516.642,212l14.219,8.21V208.171l-14.219-8.21Z" transform="translate(-516.642 -199.961)" class="f"></path></g><g _ngcontent-unx-c124="" transform="translate(0 78.619)"><path _ngcontent-unx-c124="" d="M435.463,177.363l14.219,8.209V173.535l-14.219-8.209Z" transform="translate(-435.463 -165.325)" class="b"></path></g><g _ngcontent-unx-c124="" transform="translate(21.739 91.17)"><path _ngcontent-unx-c124="" d="M448.993,185.175l14.219,8.209V181.346l-14.219-8.209Z" transform="translate(-448.993 -173.137)" class="b"></path></g><g _ngcontent-unx-c124="" transform="translate(43.478 103.721)"><path _ngcontent-unx-c124="" d="M462.523,192.986l14.219,8.209V189.158l-14.219-8.21Z" transform="translate(-462.523 -180.948)" class="f"></path></g><g _ngcontent-unx-c124="" transform="translate(65.217 116.272)"><path _ngcontent-unx-c124="" d="M476.052,200.8l14.219,8.21V196.969l-14.219-8.21Z" transform="translate(-476.052 -188.759)" class="f"></path></g><g _ngcontent-unx-c124="" transform="translate(86.956 128.823)"><path _ngcontent-unx-c124="" d="M489.582,208.609l14.219,8.209V204.78l-14.219-8.209Z" transform="translate(-489.582 -196.571)" class="f"></path></g><g _ngcontent-unx-c124="" transform="translate(108.695 141.374)"><path _ngcontent-unx-c124="" d="M503.112,216.42l14.219,8.21V212.592l-14.219-8.21Z" transform="translate(-503.112 -204.382)" class="f"></path></g><g _ngcontent-unx-c124="" transform="translate(130.433 153.925)"><path _ngcontent-unx-c124="" d="M516.642,224.232l14.219,8.21V220.4l-14.219-8.21Z" transform="translate(-516.642 -212.194)" class="f"></path></g></g></g><g _ngcontent-unx-c124="" transform="translate(169.926 92.16)"><path _ngcontent-unx-c124="" d="M524.093,139.008c0,6.631,4.656,9.321,10.4,6s10.4-11.382,10.4-18.015-4.656-9.321-10.4-6S524.093,132.376,524.093,139.008Zm2.217-1.282c0-5.217,3.663-11.562,8.183-14.172s8.182-.495,8.182,4.724-3.663,11.564-8.182,14.172S526.31,142.945,526.31,137.726Z" transform="translate(-524.093 -119.573)" class="a"></path><g _ngcontent-unx-c124="" transform="translate(2.888 26.073)"><path _ngcontent-unx-c124="" d="M527.041,136.657l-1.151-.857.983.235Z" transform="translate(-525.891 -135.8)" class="a"></path></g><g _ngcontent-unx-c124="" transform="translate(18.139 0.938)"><path _ngcontent-unx-c124="" d="M535.383,120.157l1.591,1.165-1.309.384Z" transform="translate(-535.383 -120.157)" class="a"></path></g><g _ngcontent-unx-c124="" transform="translate(1.432 1.048)"><path _ngcontent-unx-c124="" d="M524.984,139.659c0,6.633,4.656,9.321,10.4,6s10.4-11.381,10.4-18.013-4.656-9.321-10.4-6S524.984,133.026,524.984,139.659Zm2.217-1.281c0-5.217,3.663-11.562,8.183-14.171s8.182-.495,8.182,4.724-3.663,11.562-8.182,14.172S527.2,143.6,527.2,138.378Z" transform="translate(-524.984 -120.225)" class="c"></path></g></g><g _ngcontent-unx-c124="" transform="translate(182.165 111.786)"><path _ngcontent-unx-c124="" d="M531.71,133.5l1.549-1.71,4.463,2.581-2.861,1.459Z" transform="translate(-531.71 -131.788)" class="c"></path></g><g _ngcontent-unx-c124="" transform="translate(176.471 113.277)"><path _ngcontent-unx-c124="" d="M533.806,132.716l4.033,2.333-2.768,2.744-5.148,2.3a6.428,6.428,0,0,0-1.756-4.79Z" transform="translate(-528.166 -132.716)" class="b"></path></g><g _ngcontent-unx-c124="" transform="translate(143.384 76.835)"><path _ngcontent-unx-c124="" d="M507.574,129.47c0,6.631,4.656,9.321,10.4,6s10.4-11.381,10.4-18.013-4.656-9.321-10.4-6S507.574,122.836,507.574,129.47Zm2.217-1.282c0-5.217,3.663-11.562,8.183-14.172s8.182-.493,8.182,4.724-3.663,11.564-8.182,14.171S509.791,133.407,509.791,128.188Z" transform="translate(-507.574 -110.035)" class="a"></path><g _ngcontent-unx-c124="" transform="translate(2.888 26.073)"><path _ngcontent-unx-c124="" d="M510.522,127.119l-1.151-.858.983.235Z" transform="translate(-509.371 -126.262)" class="a"></path></g><g _ngcontent-unx-c124="" transform="translate(18.139 0.938)"><path _ngcontent-unx-c124="" d="M518.863,110.619l1.591,1.165-1.309.384Z" transform="translate(-518.863 -110.619)" class="a"></path></g><g _ngcontent-unx-c124="" transform="translate(1.43 1.048)"><path _ngcontent-unx-c124="" d="M508.464,130.121c0,6.633,4.658,9.321,10.4,6s10.4-11.381,10.4-18.013-4.656-9.321-10.4-6S508.464,123.488,508.464,130.121Zm2.219-1.281c0-5.217,3.663-11.562,8.183-14.171s8.182-.495,8.182,4.724-3.663,11.562-8.182,14.172S510.683,134.059,510.683,128.84Z" transform="translate(-508.464 -110.687)" class="c"></path></g></g><g _ngcontent-unx-c124="" transform="translate(155.623 96.461)"><path _ngcontent-unx-c124="" d="M515.191,123.96l1.549-1.71,4.462,2.581-2.861,1.459Z" transform="translate(-515.191 -122.25)" class="c"></path></g><g _ngcontent-unx-c124="" transform="translate(149.927 97.952)"><path _ngcontent-unx-c124="" d="M517.287,123.178l4.033,2.333-2.769,2.744-5.148,2.3a6.426,6.426,0,0,0-1.758-4.79Z" transform="translate(-511.646 -123.178)" class="b"></path></g><g _ngcontent-unx-c124="" transform="translate(151.738 81.663)"><path _ngcontent-unx-c124="" d="M512.773,132.474c0,6.633,4.656,9.321,10.4,6s10.4-11.381,10.4-18.013-4.656-9.321-10.4-6S512.773,125.841,512.773,132.474Zm2.219-1.281c0-5.217,3.663-11.562,8.182-14.172s8.183-.495,8.183,4.724-3.663,11.562-8.183,14.172S514.992,136.412,514.992,131.193Z" transform="translate(-512.773 -113.04)" class="a"></path><g _ngcontent-unx-c124="" transform="translate(2.889 26.072)"><path _ngcontent-unx-c124="" d="M515.722,130.124l-1.151-.857.982.235Z" transform="translate(-514.571 -129.267)" class="a"></path></g><g _ngcontent-unx-c124="" transform="translate(18.14 0.938)"><path _ngcontent-unx-c124="" d="M524.063,113.624l1.59,1.165-1.309.384Z" transform="translate(-524.063 -113.624)" class="a"></path></g><g _ngcontent-unx-c124="" transform="translate(1.432 1.046)"><path _ngcontent-unx-c124="" d="M513.664,133.126c0,6.633,4.656,9.321,10.4,6s10.4-11.381,10.4-18.013-4.656-9.322-10.4-6.006S513.664,126.493,513.664,133.126Zm2.217-1.281c0-5.219,3.663-11.562,8.183-14.172s8.182-.495,8.182,4.724-3.662,11.562-8.182,14.171S515.881,137.064,515.881,131.846Z" transform="translate(-513.664 -113.691)" class="c"></path></g></g><g _ngcontent-unx-c124="" transform="translate(163.977 101.289)"><path _ngcontent-unx-c124="" d="M520.391,126.965l1.549-1.71,4.462,2.581-2.861,1.459Z" transform="translate(-520.391 -125.255)" class="c"></path></g><g _ngcontent-unx-c124="" transform="translate(158.282 102.78)"><path _ngcontent-unx-c124="" d="M522.486,126.183l4.033,2.333-2.767,2.744-5.148,2.3a6.434,6.434,0,0,0-1.758-4.79Z" transform="translate(-516.846 -126.183)" class="b"></path></g><g _ngcontent-unx-c124="" transform="translate(116.836 61.468)"><path _ngcontent-unx-c124="" d="M491.051,119.9c0,6.633,4.656,9.322,10.4,6s10.4-11.381,10.4-18.013-4.656-9.321-10.4-6S491.051,113.274,491.051,119.9Zm2.219-1.281c0-5.217,3.663-11.562,8.182-14.171s8.183-.493,8.183,4.724-3.663,11.564-8.183,14.172S493.27,123.843,493.27,118.624Z" transform="translate(-491.051 -100.471)" class="a"></path><g _ngcontent-unx-c124="" transform="translate(2.889 26.073)"><path _ngcontent-unx-c124="" d="M494,117.555l-1.151-.858.983.235Z" transform="translate(-492.849 -116.698)" class="a"></path></g><g _ngcontent-unx-c124="" transform="translate(18.14 0.938)"><path _ngcontent-unx-c124="" d="M502.341,101.055l1.591,1.165-1.309.384Z" transform="translate(-502.341 -101.055)" class="a"></path></g><g _ngcontent-unx-c124="" transform="translate(1.432 1.048)"><path _ngcontent-unx-c124="" d="M491.942,120.557c0,6.633,4.656,9.321,10.4,6s10.4-11.381,10.4-18.013-4.656-9.321-10.4-6S491.942,113.924,491.942,120.557Zm2.219-1.281c0-5.217,3.663-11.562,8.182-14.172s8.183-.495,8.183,4.724-3.663,11.562-8.183,14.171S494.161,124.495,494.161,119.276Z" transform="translate(-491.942 -101.123)" class="c"></path></g></g><g _ngcontent-unx-c124="" transform="translate(129.076 81.111)"><path _ngcontent-unx-c124="" d="M498.669,114.39l1.5-1.693,4.474,2.583-2.823,1.439Z" transform="translate(-498.669 -112.697)" class="c"></path></g><g _ngcontent-unx-c124="" transform="translate(123.38 82.635)"><path _ngcontent-unx-c124="" d="M500.732,113.645l4.039,2.309-2.741,2.719-5.1,2.278a6.58,6.58,0,0,0-1.8-4.769Z" transform="translate(-495.124 -113.645)" class="b"></path></g><g _ngcontent-unx-c124="" transform="translate(125.191 66.296)"><path _ngcontent-unx-c124="" d="M496.251,122.91c0,6.633,4.656,9.321,10.4,6s10.4-11.381,10.4-18.013-4.656-9.321-10.4-6S496.251,116.277,496.251,122.91Zm2.217-1.281c0-5.217,3.663-11.562,8.183-14.172s8.182-.495,8.182,4.724-3.663,11.562-8.182,14.171S498.468,126.848,498.468,121.629Z" transform="translate(-496.251 -103.476)" class="a"></path><g _ngcontent-unx-c124="" transform="translate(2.888 26.072)"><path _ngcontent-unx-c124="" d="M499.2,120.56l-1.151-.858.983.235Z" transform="translate(-498.048 -119.702)" class="a"></path></g><g _ngcontent-unx-c124="" transform="translate(18.139 0.938)"><path _ngcontent-unx-c124="" d="M507.54,104.06l1.59,1.165-1.309.384Z" transform="translate(-507.54 -104.06)" class="a"></path></g><g _ngcontent-unx-c124="" transform="translate(1.43 1.047)"><path _ngcontent-unx-c124="" d="M497.141,123.562c0,6.633,4.656,9.321,10.4,6s10.4-11.382,10.4-18.013-4.656-9.321-10.4-6.006S497.141,116.929,497.141,123.562Zm2.219-1.281c0-5.219,3.663-11.562,8.183-14.171s8.182-.495,8.182,4.724-3.663,11.562-8.182,14.172S499.36,127.5,499.36,122.281Z" transform="translate(-497.141 -104.128)" class="c"></path></g></g><g _ngcontent-unx-c124="" transform="translate(137.43 85.922)"><path _ngcontent-unx-c124="" d="M503.868,117.4l1.549-1.71,4.462,2.581-2.861,1.459Z" transform="translate(-503.868 -115.691)" class="c"></path></g><g _ngcontent-unx-c124="" transform="translate(131.734 87.412)"><path _ngcontent-unx-c124="" d="M505.964,116.618,510,118.953l-2.768,2.744-5.111,2.283a6.493,6.493,0,0,0-1.795-4.746Z" transform="translate(-500.323 -116.618)" class="b"></path></g><g _ngcontent-unx-c124="" transform="translate(90.289 46.101)"><path _ngcontent-unx-c124="" d="M474.529,110.341c0,6.633,4.656,9.321,10.4,6.006s10.4-11.382,10.4-18.015-4.656-9.321-10.4-6S474.529,103.708,474.529,110.341Zm2.217-1.281c0-5.217,3.663-11.562,8.183-14.172s8.182-.493,8.182,4.724-3.663,11.562-8.182,14.171S476.746,114.279,476.746,109.06Z" transform="translate(-474.529 -90.907)" class="a"></path><g _ngcontent-unx-c124="" transform="translate(2.888 26.072)"><path _ngcontent-unx-c124="" d="M477.477,107.991l-1.151-.858.982.235Z" transform="translate(-476.327 -107.134)" class="a"></path></g><g _ngcontent-unx-c124="" transform="translate(18.139 0.938)"><path _ngcontent-unx-c124="" d="M485.818,91.491l1.591,1.165-1.309.384Z" transform="translate(-485.818 -91.491)" class="a"></path></g><g _ngcontent-unx-c124="" transform="translate(1.43 1.048)"><path _ngcontent-unx-c124="" d="M475.419,110.993c0,6.633,4.658,9.321,10.4,6s10.4-11.381,10.4-18.013-4.656-9.321-10.4-6S475.419,104.36,475.419,110.993Zm2.219-1.281c0-5.217,3.663-11.562,8.183-14.171S494,95.046,494,100.264s-3.663,11.562-8.181,14.172S477.638,114.931,477.638,109.712Z" transform="translate(-475.419 -91.559)" class="c"></path></g></g><g _ngcontent-unx-c124="" transform="translate(102.528 65.783)"><path _ngcontent-unx-c124="" d="M482.146,104.811l1.5-1.654,4.439,2.563L485.3,107.14Z" transform="translate(-482.146 -103.157)" class="c"></path></g><g _ngcontent-unx-c124="" transform="translate(96.803 67.255)"><path _ngcontent-unx-c124="" d="M484.171,104.073l4.1,2.367-2.751,2.674-5.074,2.266a6.745,6.745,0,0,0-1.861-4.729Z" transform="translate(-478.583 -104.073)" class="b"></path></g><g _ngcontent-unx-c124="" transform="translate(98.643 50.929)"><path _ngcontent-unx-c124="" d="M479.728,113.346c0,6.633,4.656,9.321,10.4,6s10.4-11.381,10.4-18.013-4.656-9.321-10.4-6S479.728,106.713,479.728,113.346Zm2.219-1.281c0-5.217,3.663-11.562,8.182-14.171s8.183-.495,8.183,4.724-3.663,11.562-8.183,14.172S481.947,117.284,481.947,112.065Z" transform="translate(-479.728 -93.912)" class="a"></path><g _ngcontent-unx-c124="" transform="translate(2.889 26.072)"><path _ngcontent-unx-c124="" d="M482.677,111l-1.151-.858.982.235Z" transform="translate(-481.526 -110.138)" class="a"></path></g><g _ngcontent-unx-c124="" transform="translate(18.14 0.938)"><path _ngcontent-unx-c124="" d="M491.018,94.5l1.59,1.165-1.309.384Z" transform="translate(-491.018 -94.496)" class="a"></path></g><g _ngcontent-unx-c124="" transform="translate(1.432 1.047)"><path _ngcontent-unx-c124="" d="M480.619,114c0,6.633,4.656,9.321,10.4,6s10.4-11.381,10.4-18.013-4.656-9.322-10.4-6S480.619,107.365,480.619,114Zm2.219-1.281c0-5.219,3.663-11.564,8.182-14.172s8.183-.495,8.183,4.724-3.663,11.562-8.183,14.171S482.838,117.934,482.838,112.717Z" transform="translate(-480.619 -94.563)" class="c"></path></g></g><g _ngcontent-unx-c124="" transform="translate(110.882 70.608)"><path _ngcontent-unx-c124="" d="M487.345,107.817l1.5-1.658,4.453,2.557-2.8,1.43Z" transform="translate(-487.345 -106.16)" class="c"></path></g><g _ngcontent-unx-c124="" transform="translate(105.157 72.082)"><path _ngcontent-unx-c124="" d="M489.375,107.077l4.062,2.346-2.719,2.7-5.089,2.3a6.751,6.751,0,0,0-1.848-4.764Z" transform="translate(-483.782 -107.077)" class="b"></path></g><g _ngcontent-unx-c124="" transform="translate(63.741 30.734)"><path _ngcontent-unx-c124="" d="M458.006,100.777c0,6.633,4.656,9.322,10.4,6.006s10.4-11.382,10.4-18.015-4.656-9.321-10.4-6S458.006,94.146,458.006,100.777Zm2.219-1.281c0-5.217,3.663-11.562,8.182-14.171s8.183-.495,8.183,4.724-3.663,11.562-8.183,14.172S460.225,104.715,460.225,99.5Z" transform="translate(-458.006 -81.343)" class="a"></path><g _ngcontent-unx-c124="" transform="translate(2.889 26.072)"><path _ngcontent-unx-c124="" d="M460.955,98.427,459.8,97.57l.983.235Z" transform="translate(-459.804 -97.57)" class="a"></path></g><g _ngcontent-unx-c124="" transform="translate(18.14 0.938)"><path _ngcontent-unx-c124="" d="M469.3,81.927l1.591,1.165-1.309.384Z" transform="translate(-469.296 -81.927)" class="a"></path></g><g _ngcontent-unx-c124="" transform="translate(1.432 1.048)"><path _ngcontent-unx-c124="" d="M458.9,101.429c0,6.633,4.656,9.321,10.4,6s10.4-11.381,10.4-18.013-4.656-9.321-10.4-6S458.9,94.8,458.9,101.429Zm2.219-1.281c0-5.217,3.663-11.562,8.182-14.172s8.183-.495,8.183,4.724-3.663,11.562-8.183,14.171S461.116,105.367,461.116,100.148Z" transform="translate(-458.897 -81.995)" class="c"></path></g></g><g _ngcontent-unx-c124="" transform="translate(75.981 50.442)"><path _ngcontent-unx-c124="" d="M465.624,95.237l1.475-1.628,4.426,2.555-2.75,1.4Z" transform="translate(-465.624 -93.609)" class="c"></path></g><g _ngcontent-unx-c124="" transform="translate(70.255 51.906)"><path _ngcontent-unx-c124="" d="M467.61,94.52l4.112,2.373L469,99.543l-5.05,2.254a6.788,6.788,0,0,0-1.886-4.687Z" transform="translate(-462.06 -94.52)" class="b"></path></g><g _ngcontent-unx-c124="" transform="translate(72.096 35.562)"><path _ngcontent-unx-c124="" d="M463.206,103.782c0,6.633,4.656,9.321,10.4,6s10.4-11.381,10.4-18.013-4.656-9.321-10.4-6S463.206,97.149,463.206,103.782Zm2.217-1.281c0-5.217,3.663-11.564,8.183-14.172s8.182-.495,8.182,4.724-3.663,11.562-8.182,14.171S465.423,107.72,465.423,102.5Z" transform="translate(-463.206 -84.348)" class="a"></path><g _ngcontent-unx-c124="" transform="translate(2.888 26.072)"><path _ngcontent-unx-c124="" d="M466.154,101.432,465,100.575l.983.235Z" transform="translate(-465.003 -100.575)" class="a"></path></g><g _ngcontent-unx-c124="" transform="translate(18.139 0.938)"><path _ngcontent-unx-c124="" d="M474.5,84.932l1.591,1.165-1.309.384Z" transform="translate(-474.495 -84.932)" class="a"></path></g><g _ngcontent-unx-c124="" transform="translate(1.43 1.046)"><path _ngcontent-unx-c124="" d="M464.1,104.434c0,6.633,4.658,9.321,10.4,6s10.4-11.381,10.4-18.013-4.656-9.322-10.4-6.006S464.1,97.8,464.1,104.434Zm2.219-1.281c0-5.219,3.663-11.564,8.183-14.171s8.181-.495,8.181,4.724-3.663,11.562-8.181,14.172S466.315,108.372,466.315,103.154Z" transform="translate(-464.096 -84.999)" class="c"></path></g></g><g _ngcontent-unx-c124="" transform="translate(84.335 55.267)"><path _ngcontent-unx-c124="" d="M470.823,98.243l1.477-1.631,4.427,2.556-2.754,1.4Z" transform="translate(-470.823 -96.612)" class="c"></path></g><g _ngcontent-unx-c124="" transform="translate(78.584 56.733)"><path _ngcontent-unx-c124="" d="M472.823,97.524l4.1,2.367-2.72,2.658-5.06,2.259a6.908,6.908,0,0,0-1.9-4.719Z" transform="translate(-467.244 -97.524)" class="b"></path></g><g _ngcontent-unx-c124="" transform="translate(37.195 15.367)"><path _ngcontent-unx-c124="" d="M441.484,91.213c0,6.633,4.656,9.322,10.4,6s10.4-11.381,10.4-18.013-4.656-9.321-10.4-6S441.484,84.58,441.484,91.213Zm2.217-1.281c0-5.217,3.663-11.562,8.183-14.171s8.182-.495,8.182,4.724-3.663,11.564-8.182,14.172S443.7,95.151,443.7,89.932Z" transform="translate(-441.484 -71.779)" class="a"></path><g _ngcontent-unx-c124="" transform="translate(2.888 26.072)"><path _ngcontent-unx-c124="" d="M444.432,88.863l-1.151-.858.983.235Z" transform="translate(-443.281 -88.006)" class="a"></path></g><g _ngcontent-unx-c124="" transform="translate(18.139 0.938)"><path _ngcontent-unx-c124="" d="M452.773,72.363l1.59,1.165-1.309.384Z" transform="translate(-452.773 -72.363)" class="a"></path></g><g _ngcontent-unx-c124="" transform="translate(1.432 1.048)"><path _ngcontent-unx-c124="" d="M442.375,91.865c0,6.633,4.656,9.321,10.4,6s10.4-11.381,10.4-18.013-4.656-9.321-10.4-6S442.375,85.232,442.375,91.865Zm2.217-1.281c0-5.217,3.663-11.562,8.183-14.171s8.182-.495,8.182,4.724-3.663,11.562-8.182,14.172S444.592,95.8,444.592,90.584Z" transform="translate(-442.375 -72.431)" class="c"></path></g></g><g _ngcontent-unx-c124="" transform="translate(49.433 35.101)"><path _ngcontent-unx-c124="" d="M449.1,85.663l1.451-1.6,4.413,2.548-2.714,1.384Z" transform="translate(-449.101 -84.061)" class="c"></path></g><g _ngcontent-unx-c124="" transform="translate(43.684 36.544)"><path _ngcontent-unx-c124="" d="M451.037,84.959l4.112,2.375-2.667,2.643-5.024,2.243a6.563,6.563,0,0,0-1.934-4.668Z" transform="translate(-445.523 -84.959)" class="b"></path></g><g _ngcontent-unx-c124="" transform="translate(45.548 20.195)"><path _ngcontent-unx-c124="" d="M446.683,94.218c0,6.633,4.656,9.321,10.4,6s10.4-11.381,10.4-18.013-4.656-9.321-10.4-6S446.683,87.585,446.683,94.218Zm2.219-1.281c0-5.219,3.663-11.564,8.182-14.171s8.183-.495,8.183,4.724-3.663,11.562-8.183,14.171S448.9,98.156,448.9,92.937Z" transform="translate(-446.683 -74.784)" class="a"></path><g _ngcontent-unx-c124="" transform="translate(2.889 26.072)"><path _ngcontent-unx-c124="" d="M449.632,91.868l-1.151-.858.983.235Z" transform="translate(-448.481 -91.01)" class="a"></path></g><g _ngcontent-unx-c124="" transform="translate(18.14 0.938)"><path _ngcontent-unx-c124="" d="M457.973,75.368l1.59,1.165-1.309.384Z" transform="translate(-457.973 -75.368)" class="a"></path></g><g _ngcontent-unx-c124="" transform="translate(1.432 1.046)"><path _ngcontent-unx-c124="" d="M447.574,94.87c0,6.633,4.656,9.321,10.4,6s10.4-11.382,10.4-18.015-4.656-9.321-10.4-6S447.574,88.238,447.574,94.87Zm2.219-1.281c0-5.219,3.663-11.564,8.182-14.173s8.183-.493,8.183,4.725-3.663,11.562-8.183,14.172S449.793,98.807,449.793,93.59Z" transform="translate(-447.574 -75.435)" class="c"></path></g></g><g _ngcontent-unx-c124="" transform="translate(57.788 39.926)"><path _ngcontent-unx-c124="" d="M454.3,88.669l1.454-1.605,4.415,2.549L457.451,91Z" transform="translate(-454.301 -87.064)" class="c"></path></g><g _ngcontent-unx-c124="" transform="translate(52.023 41.384)"><path _ngcontent-unx-c124="" d="M456.268,87.971l4.089,2.36-2.669,2.646-5.036,2.248a6.243,6.243,0,0,0-1.939-4.69Z" transform="translate(-450.713 -87.971)" class="b"></path></g><g _ngcontent-unx-c124="" transform="translate(10.646)"><path _ngcontent-unx-c124="" d="M424.961,81.649c0,6.633,4.656,9.321,10.4,6s10.4-11.381,10.4-18.013-4.656-9.321-10.4-6S424.961,75.016,424.961,81.649Zm2.219-1.281c0-5.217,3.663-11.562,8.182-14.171s8.183-.495,8.183,4.724-3.663,11.564-8.183,14.171S427.18,85.587,427.18,80.368Z" transform="translate(-424.961 -62.215)" class="a"></path><g _ngcontent-unx-c124="" transform="translate(2.889 26.072)"><path _ngcontent-unx-c124="" d="M427.91,79.3l-1.151-.858.983.235Z" transform="translate(-426.759 -78.442)" class="a"></path></g><g _ngcontent-unx-c124="" transform="translate(18.14 0.938)"><path _ngcontent-unx-c124="" d="M436.251,62.8l1.591,1.165-1.309.384Z" transform="translate(-436.251 -62.799)" class="a"></path></g><g _ngcontent-unx-c124="" transform="translate(1.432 1.048)"><path _ngcontent-unx-c124="" d="M425.852,82.3c0,6.633,4.656,9.321,10.4,6s10.4-11.381,10.4-18.013-4.656-9.321-10.4-6S425.852,75.668,425.852,82.3Zm2.219-1.281c0-5.217,3.663-11.562,8.182-14.171s8.183-.495,8.183,4.724-3.663,11.562-8.183,14.172S428.071,86.239,428.071,81.02Z" transform="translate(-425.852 -62.867)" class="c"></path></g></g><g _ngcontent-unx-c124="" transform="translate(22.886 19.76)"><path _ngcontent-unx-c124="" d="M432.579,76.089l1.427-1.576,4.4,2.54-2.677,1.365Z" transform="translate(-432.579 -74.513)" class="c"></path></g><g _ngcontent-unx-c124="" transform="translate(17.093 21.217)"><path _ngcontent-unx-c124="" d="M434.531,75.42l4.086,2.359-2.64,2.619-5,2.233a6.543,6.543,0,0,0-2-4.672Z" transform="translate(-428.973 -75.42)" class="b"></path></g><g _ngcontent-unx-c124="" transform="translate(19.001 4.828)"><path _ngcontent-unx-c124="" d="M430.161,84.654c0,6.633,4.656,9.321,10.4,6s10.4-11.382,10.4-18.013-4.656-9.322-10.4-6S430.161,78.021,430.161,84.654Zm2.217-1.281c0-5.219,3.663-11.564,8.183-14.172s8.182-.495,8.182,4.724S445.08,85.488,440.561,88.1,432.378,88.592,432.378,83.373Z" transform="translate(-430.161 -65.219)" class="a"></path><g _ngcontent-unx-c124="" transform="translate(2.888 26.073)"><path _ngcontent-unx-c124="" d="M433.109,82.3l-1.151-.858.983.235Z" transform="translate(-431.958 -81.446)" class="a"></path></g><g _ngcontent-unx-c124="" transform="translate(18.139 0.939)"><path _ngcontent-unx-c124="" d="M441.451,65.8l1.59,1.165-1.309.384Z" transform="translate(-441.451 -65.804)" class="a"></path></g><g _ngcontent-unx-c124="" transform="translate(1.43 1.047)"><path _ngcontent-unx-c124="" d="M431.051,85.306c0,6.633,4.658,9.321,10.4,6s10.4-11.382,10.4-18.015-4.656-9.321-10.4-6S431.051,78.674,431.051,85.306Zm2.219-1.281c0-5.219,3.663-11.564,8.183-14.172s8.182-.495,8.182,4.722-3.663,11.564-8.182,14.173S433.27,89.243,433.27,84.026Z" transform="translate(-431.051 -65.871)" class="c"></path></g></g><g _ngcontent-unx-c124="" transform="translate(31.24 24.585)"><path _ngcontent-unx-c124="" d="M437.778,79.1l1.43-1.579,4.4,2.541-2.681,1.367Z" transform="translate(-437.778 -77.516)" class="c"></path></g><g _ngcontent-unx-c124="" transform="translate(25.443 26.034)"><path _ngcontent-unx-c124="" d="M439.72,78.418l4.1,2.367-2.643,2.622-5.016,2.3a6.636,6.636,0,0,0-1.991-4.743Z" transform="translate(-434.17 -78.418)" class="b"></path></g><g _ngcontent-unx-c124="" transform="translate(178.272 96.983)"><path _ngcontent-unx-c124="" d="M529.287,142.009c0,6.633,4.656,9.321,10.4,6s10.4-11.381,10.4-18.013-4.658-9.321-10.4-6S529.287,135.376,529.287,142.009Zm2.219-1.281c0-5.217,3.663-11.562,8.183-14.171s8.182-.495,8.182,4.724-3.663,11.562-8.182,14.172S531.506,145.947,531.506,140.728Z" transform="translate(-529.287 -122.575)" class="a"></path><g _ngcontent-unx-c124="" transform="translate(2.889 26.072)"><path _ngcontent-unx-c124="" d="M532.236,139.659l-1.151-.857.983.235Z" transform="translate(-531.085 -138.802)" class="a"></path></g><g _ngcontent-unx-c124="" transform="translate(18.141 0.938)"><path _ngcontent-unx-c124="" d="M540.577,123.159l1.591,1.165-1.309.384Z" transform="translate(-540.577 -123.159)" class="a"></path></g><g _ngcontent-unx-c124="" transform="translate(1.432 1.046)"><path _ngcontent-unx-c124="" d="M530.178,142.661c0,6.633,4.656,9.321,10.4,6s10.4-11.381,10.4-18.013-4.658-9.322-10.4-6.006S530.178,136.028,530.178,142.661Zm2.219-1.281c0-5.217,3.663-11.562,8.182-14.171s8.183-.495,8.183,4.724S545.1,143.5,540.578,146.1,532.4,146.6,532.4,141.381Z" transform="translate(-530.178 -123.226)" class="c"></path></g></g><g _ngcontent-unx-c124="" transform="translate(199.694 154.276)"><path _ngcontent-unx-c124="" d="M542.62,163.025l2.054-1.231v-3.561l-2.054,1.319Z" transform="translate(-542.62 -158.233)" class="c"></path></g><g _ngcontent-unx-c124="" transform="translate(190.512 116.61)"><path _ngcontent-unx-c124="" d="M536.905,136.5l1.549-1.71a26.574,26.574,0,0,1,4.309,2.781l-2.709,1.258Z" transform="translate(-536.905 -134.79)" class="c"></path></g><g _ngcontent-unx-c124="" transform="translate(184.816 118.101)"><path _ngcontent-unx-c124="" d="M539,135.718a19.491,19.491,0,0,1,4.949,3.6c1.571,1.875-8.831,3.776-8.831,3.776a6.426,6.426,0,0,0-1.758-4.79Z" transform="translate(-533.36 -135.718)" class="b"></path></g></g><g _ngcontent-unx-c124="" transform="translate(301.449 47.948)"><g _ngcontent-unx-c124="" transform="translate(7.375 116.127)"><g _ngcontent-unx-c124="" transform="translate(19.301 114.102)"><path _ngcontent-unx-c124="" d="M347.088,196.788a26.351,26.351,0,0,0-3.34-1.6l.034,0-6.427-2.849.485,1.122a41.532,41.532,0,0,0-15.071-.161l.3-1.245-7.56,3.35.045,0a25.734,25.734,0,0,0-2.826,1.38c-9.489,5.479-9.489,14.361,0,19.839s24.872,5.479,34.362,0S356.576,202.267,347.088,196.788Z" transform="translate(-305.609 -190.739)" class="a"></path><path _ngcontent-unx-c124="" d="M333.083,202.459c-4.447,2.566-11.657,2.566-16.1,0s-4.446-6.731,0-9.3,11.655-2.568,16.1,0S337.529,199.891,333.083,202.459Z" transform="translate(-300.734 -191.236)" class="b"></path></g><g _ngcontent-unx-c124="" transform="translate(39.577 67.529)"><path _ngcontent-unx-c124="" d="M322.194,216.368h0a3.87,3.87,0,0,1-3.871-3.871V163.569h7.741V212.5A3.87,3.87,0,0,1,322.194,216.368Z" transform="translate(-318.172 -161.451)" class="b"></path><path _ngcontent-unx-c124="" d="M324.972,166.144a6.167,6.167,0,0,1-5.587,0c-1.542-.89-1.542-2.335,0-3.226a6.178,6.178,0,0,1,5.587,0C326.517,163.81,326.517,165.254,324.972,166.144Z" transform="translate(-318.229 -162.251)" class="b"></path></g><path _ngcontent-unx-c124="" d="M321.917,183.169h0a3.138,3.138,0,0,1-3.138-3.138v-46h6.276v46A3.139,3.139,0,0,1,321.917,183.169Z" transform="translate(-278.318 -111.841)" class="a"></path><g _ngcontent-unx-c124="" transform="translate(64.625 39.9)"><path _ngcontent-unx-c124="" d="M348.811,150.766v-1.8l2.545-.368,2.847-2.132a1.918,1.918,0,0,1,1.877-.069l2.1,1.215,2.082-.3v1.825h-.008a.7.7,0,0,1-.479.551l-6.634,2.955a2.093,2.093,0,0,1-1.739-.064L349.2,151.3a.645.645,0,0,1-.374-.535Z" transform="translate(-324.722 -144.37)" class="c"></path><path _ngcontent-unx-c124="" d="M349.086,149.167l5.117-3.831a1.914,1.914,0,0,1,1.877-.069l3.819,2.2c.533.307.477.816-.121,1.083l-6.634,2.955a2.081,2.081,0,0,1-1.739-.064l-2.209-1.276C348.728,149.9,348.681,149.469,349.086,149.167Z" transform="translate(-324.722 -145.055)" class="b"></path><g _ngcontent-unx-c124="" transform="translate(0 2.922)"><path _ngcontent-unx-c124="" d="M349.546,156.751a4.177,4.177,0,0,0,2.05-.5l7.953-4.594a.918.918,0,0,0-.921-1.589l-7.952,4.592a2.632,2.632,0,0,1-2.262,0L335.195,147a.918.918,0,1,0-.916,1.591l13.219,7.656A4.151,4.151,0,0,0,349.546,156.751Z" transform="translate(-333.818 -146.874)" class="a"></path></g></g><path _ngcontent-unx-c124="" d="M296.2,146.573l12.772-7.424-7.156-3.232-6.122,4.341Z" transform="translate(-292.325 -110.699)" class="j"></path><path _ngcontent-unx-c124="" d="M377.7,145.074a16.684,16.684,0,0,1-2.148-1.337l-27.217-19.946c-4.913-3.6-9.973-4.529-13.884-2.545-.1.051-.19.122-.289.178l-.029-.01-37.588,21.808,3.377,1.125,13.162,5.969,17.909,12.7,14.133,7.5.641.137c3.3-2.775,6.986-5.156,9.009-9.2,3.5-6.123,13.243-7.876,18.971-12.841.578.368,1.157.71,1.734,1.009C376.665,148.457,376.983,146.8,377.7,145.074Z" transform="translate(-291.808 -120.222)" class="b"></path><path _ngcontent-unx-c124="" d="M371.052,130.092a2.506,2.506,0,0,0-1.542.538l-.006-.008L332.72,151.913l1.345,5.5,1.379-.659c-2.1,3.286-5.336,5.447-8.264,7.912l4.158.882,36.025-20.962c.166-.072.336-.133.5-.217a8.9,8.9,0,0,0,1.388-.882l.063-.035-.024,0c2.743-2.118,4.292-5.8,4.292-10.4v-.434A2.528,2.528,0,0,0,371.052,130.092Z" transform="translate(-273.221 -114.233)" class="c"></path><g _ngcontent-unx-c124="" transform="translate(4.737 0.006)"><path _ngcontent-unx-c124="" d="M323.134,120.226a15.4,15.4,0,0,1,7.222,2.338A15.4,15.4,0,0,0,323.134,120.226Z" transform="translate(-280.412 -120.226)" class="k"></path><path _ngcontent-unx-c124="" d="M356.019,156.636v-.431a2.528,2.528,0,1,0-5.056,0v.431c0,3.379-1.073,5.863-2.948,6.813-2.116,1.07-5.336.283-8.609-2.116l-27.217-19.945c-4.189-3.069-8.479-4.176-12.076-3.215l22.477-13.04-26.044,15.11,3.377,1.125,13.162,5.969,17.909,12.7,14.133,7.5.641.137c3.3-2.775,6.986-5.156,9.009-9.2a10.613,10.613,0,0,1,1.236-1.7C356.012,156.73,356.019,156.685,356.019,156.636Z" transform="translate(-296.545 -117.249)" class="b"></path></g><g _ngcontent-unx-c124="" transform="translate(0 21.395)"><path _ngcontent-unx-c124="" d="M346.9,164.7a16.387,16.387,0,0,1-9.473-3.569l-27.217-19.945c-3.273-2.4-6.49-3.188-8.611-2.114-1.873.95-2.948,3.432-2.948,6.811a2.528,2.528,0,0,1-5.056,0c0-5.352,2.084-9.478,5.718-11.321,3.909-1.98,8.972-1.054,13.884,2.547l27.218,19.946c3.273,2.4,6.491,3.186,8.609,2.114,1.873-.95,2.948-3.432,2.948-6.811v-.432a2.528,2.528,0,0,1,5.056,0v.432c0,5.352-2.084,9.478-5.718,11.321A9.689,9.689,0,0,1,346.9,164.7Z" transform="translate(-293.597 -133.538)" class="a"></path></g></g><g _ngcontent-unx-c124="" transform="translate(3.86)"><path _ngcontent-unx-c124="" d="M319.528,181s-5.127-2.585-8.275,1.264-7.648,12.936-7.788,19.075,4.859,5.726,7.83,4.272,11.652-14.043,12.177-16.509-.62-5.8-1.456-6.456S319.528,181,319.528,181Z" transform="translate(-284.097 32.268)" class="l"></path><path _ngcontent-unx-c124="" d="M317.822,180.376l.236,5.312a3.009,3.009,0,0,1-1.5,2.762,5.908,5.908,0,0,1-3.954.615c-3.861-.62-4.206-1.724-4.481-7.034S317.822,180.376,317.822,180.376Z" transform="translate(-281.273 31.659)" class="m"></path><g _ngcontent-unx-c124="" transform="translate(0 94.22)"><path _ngcontent-unx-c124="" d="M307.848,174.648s-5.126-2.585-8.273,1.265-7.648,12.936-7.788,19.075,4.859,5.726,7.83,4.272,11.651-14.043,12.176-16.511-.619-5.8-1.454-6.456S307.848,174.648,307.848,174.648Z" transform="translate(-291.182 -65.808)" class="n"></path><path _ngcontent-unx-c124="" d="M306.142,174.021l.238,5.31a3.013,3.013,0,0,1-1.5,2.764,5.91,5.91,0,0,1-3.954.614c-3.861-.62-4.206-1.724-4.481-7.033S306.142,174.021,306.142,174.021Z" transform="translate(-288.358 -66.417)" class="m"></path><path _ngcontent-unx-c124="" d="M354.935,116.691c-1.518-24.686-26.735,3.631-26.735,3.631l-17.258,16.916L295.4,154.312a15.314,15.314,0,0,0-3.859,12.306l6.286,47.873a4.709,4.709,0,0,0,4.719,4.089,16.3,16.3,0,0,0,2.328-.2,5.849,5.849,0,0,0,5.195-6.207L308.919,167.4l32.638-19.675S356.451,141.376,354.935,116.691Z" transform="translate(-291.41 -106.588)" class="a"></path></g><path _ngcontent-unx-c124="" d="M366.613,122.544c-1.517-24.684-26.735,3.633-26.735,3.633L322.62,143.093l-15.542,17.073a15.314,15.314,0,0,0-3.859,12.306l6.287,47.871a4.7,4.7,0,0,0,4.717,4.089,15.842,15.842,0,0,0,2.328-.2,5.847,5.847,0,0,0,5.195-6.205L320.6,173.25l32.638-19.676S368.129,147.23,366.613,122.544Z" transform="translate(-284.324 -8.816)" class="a"></path><path _ngcontent-unx-c124="" d="M347.267,70.449C366.384,78.375,366,89.676,366,89.676s-3.745,41.43-2.466,69.1c.533,11.567-61.455,12.449-52.211-18.41,10.9-36.385,6.814-65.841,11.917-70.284S342.321,68.4,347.267,70.449Z" transform="translate(-279.897 -35.962)" class="b"></path><path _ngcontent-unx-c124="" d="M344.444,79.39c-1,3.882-6.085,5.927-11.36,4.568s-8.737-5.606-7.738-9.488,6.086-5.927,11.36-4.568S345.443,75.508,344.444,79.39Z" transform="translate(-270.923 -34.882)" class="m"></path><path _ngcontent-unx-c124="" d="M336.658,85.631a13.832,13.832,0,0,1-3.454-.445,12.726,12.726,0,0,1-6.7-4.1,7.306,7.306,0,0,1-1.692-6.5c1.123-4.364,6.723-6.7,12.472-5.227s9.518,6.236,8.4,10.6h0C344.78,83.436,341.046,85.631,336.658,85.631ZM333.78,70.736c-3.551,0-6.52,1.65-7.2,4.3a5.534,5.534,0,0,0,1.338,4.885,10.89,10.89,0,0,0,5.741,3.491c4.777,1.232,9.375-.524,10.248-3.912s-2.306-7.145-7.083-8.376A12.218,12.218,0,0,0,333.78,70.736Z" transform="translate(-271.269 -35.225)" class="f"></path><path _ngcontent-unx-c124="" d="M328.631,70.314s.165.766-.166,6.825c-.1,1.9,6.565,3.683,8.289,1.959s1.033-3.517,1.448-10S328.631,70.314,328.631,70.314Z" transform="translate(-268.927 -36.689)" class="m"></path><path _ngcontent-unx-c124="" d="M338.2,68.119s-1.642,6.011-9.739,8.315l.124-5.461Z" transform="translate(-268.927 -35.709)" class="o"></path><circle _ngcontent-unx-c124="" cx="14.716" cy="14.716" r="14.716" transform="matrix(0.513, -0.858, 0.858, 0.513, 39.974, 25.902)" class="m"></circle><path _ngcontent-unx-c124="" d="M337.826,62.587s-8.1,3.471-13.712,3.511-4.374-4.66-4.374-4.66l16.652-2.405Z" transform="translate(-274.29 -41.221)" class="o"></path><path _ngcontent-unx-c124="" d="M324.857,70.227s7.058-3,13.249-1.747a6.487,6.487,0,0,1,3.742,2.224,2.2,2.2,0,0,0,1.133.818c1.1.249,2.9-4.306,5.029-4.409s3.557,1.406,1.808,4.208-1.158,5.937-.352,6.387,9.345-6.091,1.811-21.015-26.667-6.885-29.643-3.859c0,0-3.136,2.731-5.685.3C315.949,53.135,313.091,74.543,324.857,70.227Z" transform="translate(-276.705 -47.948)" class="c"></path><path _ngcontent-unx-c124="" d="M347.57,102.622v11.2a4.563,4.563,0,0,1-1.488,3.371l-23,20.966,2.613,4,30.371-22.027a6.162,6.162,0,0,0,2.515-4.351l2.053-19.524Z" transform="translate(-272.191 -18.64)" class="m"></path><path _ngcontent-unx-c124="" d="M348.064,77.894s6.977,10.492,9.576,38.112c0,0-11.919,3.853-18.683,1.666S348.064,77.894,348.064,77.894Z" transform="translate(-263.578 -29.778)" class="b"></path><path _ngcontent-unx-c124="" d="M338.623,86.151s-2.733,14.618-2.887,21.489a4.385,4.385,0,0,0,2.887,4.235h0Z" transform="translate(-264.516 -24.768)" class="c"></path></g><g _ngcontent-unx-c124="" transform="translate(3.676 111.157)"><path _ngcontent-unx-c124="" d="M359.618,138.953l-5.084-.672-32.811-18.944a4.558,4.558,0,0,0-4.1.17l-23.25,13.418-3.074-.4v3.059h0a1.2,1.2,0,0,0,.705,1.078l37.185,21.468a4.557,4.557,0,0,0,4.1-.169l25.321-14.615a1.657,1.657,0,0,0,1-1.38h0Z" transform="translate(-291.294 -116.037)" class="d"></path><path _ngcontent-unx-c124="" d="M334.964,124.449l-2.331-1.346H307l-12.634,7.29-3.074-.4v3.059h0a1.2,1.2,0,0,0,.705,1.078l37.185,21.468a3.852,3.852,0,0,0,2.118.4Z" transform="translate(-291.294 -113.504)" class="c"></path><path _ngcontent-unx-c124="" d="M292.66,127.568l-1.364-.18v3.059h0a1.2,1.2,0,0,0,.705,1.078l.656.378Z" transform="translate(-291.294 -110.904)" class="b"></path><path _ngcontent-unx-c124="" d="M315.113,145.481a4.763,4.763,0,0,0,3.487-.217v-5.206h-3.487Z" transform="translate(-276.843 -103.216)" class="e"></path><path _ngcontent-unx-c124="" d="M329.19,156.16l-37.185-21.468c-1.052-.607-.921-1.669.294-2.37l25.321-14.613a4.558,4.558,0,0,1,4.1-.17l37.185,21.469c1.052.607.921,1.668-.294,2.368l-25.321,14.615A4.563,4.563,0,0,1,329.19,156.16Z" transform="translate(-291.295 -117.129)" class="f"></path><path _ngcontent-unx-c124="" d="M326.388,149.944l-30.92-17.851c-.874-.5-.765-1.387.246-1.97l13.567-7.63a3.8,3.8,0,0,1,3.413-.141l30.92,17.851c.874.506.765,1.388-.246,1.971L329.8,149.8A3.786,3.786,0,0,1,326.388,149.944Z" transform="translate(-289.121 -114.166)" class="a"></path></g><path _ngcontent-unx-c124="" d="M308.8,117.538l-.386,2.566a18.981,18.981,0,0,0,.169,6.58l.458,2.261a3.178,3.178,0,0,0,2.547,2.5h0a1.753,1.753,0,0,0,2.057-1.53l.614-5.485s1.4,1.838,2.081,1.838-.757-5.492-2.29-8.6S308.8,117.538,308.8,117.538Z" transform="translate(-277.36 -6.506)" class="m"></path><path _ngcontent-unx-c124="" d="M322.092,94.6l-3.99,7.9a15.485,15.485,0,0,0-1.634,5.995L314.736,135.5l-5.249-.125L307.1,105.04a11.081,11.081,0,0,1,.137-2.8l2.72-15.383Z" transform="translate(-278.047 -24.342)" class="m"></path><g _ngcontent-unx-c124="" transform="translate(0 95.073)"><path _ngcontent-unx-c124="" d="M329.074,164.3l-3.117-4.07-32.789-18.984a4.565,4.565,0,0,1-1.9-3.642l.029-26.844-1.885-2.462,1.771-1.025,0,0a1.2,1.2,0,0,1,1.287.074l37.158,21.514a4.561,4.561,0,0,1,1.9,3.642l-.032,29.235a1.654,1.654,0,0,1-.694,1.559h0Z" transform="translate(-288.762 -107.118)" class="d"></path><path _ngcontent-unx-c124="" d="M306.4,148.9l-2.33-1.348-12.787-22.21.013-14.588-1.885-2.462,1.771-1.025,0,0a1.2,1.2,0,0,1,1.287.074l37.158,21.514a3.847,3.847,0,0,1,1.4,1.637Z" transform="translate(-288.762 -107.118)" class="c"></path><path _ngcontent-unx-c124="" d="M290.246,109.388l-.835-1.093,1.771-1.025,0,0a1.2,1.2,0,0,1,1.287.074l.654.379Z" transform="translate(-288.762 -107.118)" class="b"></path><path _ngcontent-unx-c124="" d="M316.093,120.8a4.766,4.766,0,0,1,1.554,3.13l-3.631,2.1L312.275,123Z" transform="translate(-274.889 -98.819)" class="e"></path><path _ngcontent-unx-c124="" d="M328.1,129.5l-37.159-21.514c-1.051-.609-1.9.035-1.906,1.438l-.032,29.235a4.56,4.56,0,0,0,1.9,3.641l37.159,21.514c1.051.609,1.9-.035,1.906-1.438L330,133.14A4.562,4.562,0,0,0,328.1,129.5Z" transform="translate(-289.007 -106.732)" class="b"></path></g><path _ngcontent-unx-c124="" d="M329.338,126.327l-.594,1.234A8.278,8.278,0,0,1,325.636,131l-3.691,2.275a3.678,3.678,0,0,1-3.768.087q-.063-.036-.125-.077a2.22,2.22,0,0,1-.313-3.411l3.856-3.965s-2.166,1.661-2.773.993c-.445-.49,2.1-2.883,4.055-2.96a7.724,7.724,0,0,0,3.848-1.615Z" transform="translate(-271.97 -2.816)" class="m"></path><path _ngcontent-unx-c124="" d="M326.117,69.147s-14.139,15.386-19.843,29.5c0,0,4.835,8.712,16.67,12.129S326.117,69.147,326.117,69.147Z" transform="translate(-278.53 -35.085)" class="b"></path><path _ngcontent-unx-c124="" d="M316.165,102.848l2.293-22.139-5.4,20.743A31.236,31.236,0,0,0,316.165,102.848Z" transform="translate(-274.414 -28.07)" class="c"></path><path _ngcontent-unx-c124="" d="M326.651,67.609l-3.8-1.044s1.814,2.854,4.462,3.581,3.061-1.514,3.061-1.514Z" transform="translate(-268.472 -36.651)" class="f"></path></g><path _ngcontent-unx-c124="" d="M574.036,271.12a1.094,1.094,0,0,1-.538-.143L432.731,189.706a1.08,1.08,0,0,1,1.08-1.872l140.767,81.272a1.079,1.079,0,0,1-.542,2.013Z" transform="translate(99.318 84.788)" class="b"></path><g _ngcontent-unx-c124="" transform="translate(308.891 417.5)"><path _ngcontent-unx-c124="" d="M304.133,277.948l14.122,8.375-10.495,5.9-14.123-8.375Z" transform="translate(-293.638 -277.948)" class="a"></path></g><g _ngcontent-unx-c124="" transform="translate(344.024 440.483)"><path _ngcontent-unx-c124="" d="M326,292.252l14.122,8.375-10.494,5.9L315.5,298.149Z" transform="translate(-315.504 -292.252)" class="a"></path></g><g _ngcontent-unx-c124="" transform="translate(374.992 460.132)"><path _ngcontent-unx-c124="" d="M345.273,304.481l14.122,8.375-10.495,5.9-14.122-8.375Z" transform="translate(-334.778 -304.481)" class="g"></path></g><g _ngcontent-unx-c124="" transform="translate(460.147 246.415)"><path _ngcontent-unx-c124="" d="M398.271,171.469l14.123,8.375-10.495,5.9-14.123-8.375Z" transform="translate(-387.777 -171.469)" class="g"></path></g><g _ngcontent-unx-c124="" transform="translate(452.709 136.696)"><path _ngcontent-unx-c124="" d="M393.642,103.182l14.122,8.375-10.495,5.9-14.123-8.375Z" transform="translate(-383.147 -103.182)" class="b"></path></g><g _ngcontent-unx-c124="" transform="translate(268.501 195.545)"><path _ngcontent-unx-c124="" d="M279,139.809l14.122,8.375-10.494,5.9L268.5,145.706Z" transform="translate(-268.501 -139.809)" class="b"></path></g><g _ngcontent-unx-c124="" transform="translate(521.769 299.859)"><path _ngcontent-unx-c124="" d="M436.623,204.731l14.122,8.375L440.251,219l-14.122-8.375Z" transform="translate(-426.129 -204.731)" class="b"></path></g><g _ngcontent-unx-c124="" transform="translate(475.739 186.911)"><path _ngcontent-unx-c124="" d="M407.976,134.435,422.1,142.81l-10.495,5.9-14.122-8.375Z" transform="translate(-397.481 -134.435)" class="a"></path></g><g _ngcontent-unx-c124="" transform="translate(366.507 243.748)"><path _ngcontent-unx-c124="" d="M339.992,169.809l14.122,8.375-10.495,5.9L329.5,175.706Z" transform="translate(-329.497 -169.809)" class="a"></path></g><g _ngcontent-unx-c124="" transform="translate(717.385 169.91)"><path _ngcontent-unx-c124="" d="M558.37,123.854l14.122,8.375L562,138.126l-14.123-8.375Z" transform="translate(-547.876 -123.854)" class="b"></path></g><g _ngcontent-unx-c124="" transform="translate(630.18 358.642)"><path _ngcontent-unx-c124="" d="M504.1,241.316l14.122,8.375-10.495,5.9L493.6,247.213Z" transform="translate(-493.601 -241.316)" class="a"></path></g><g _ngcontent-unx-c124="" transform="translate(411.307 480.102)"><path _ngcontent-unx-c124="" d="M367.874,316.91,382,325.285l-10.495,5.9-14.122-8.375Z" transform="translate(-357.38 -316.91)" class="a"></path></g><g _ngcontent-unx-c124="" transform="translate(354.199 480.102)"><path _ngcontent-unx-c124="" d="M332.332,316.91l14.123,8.375-10.495,5.9-14.123-8.375Z" transform="translate(-321.837 -316.91)" class="b"></path></g><g _ngcontent-unx-c124="" transform="translate(395.349 498.609)"><path _ngcontent-unx-c124="" d="M357.942,328.428l14.122,8.375-10.495,5.9-14.123-8.375Z" transform="translate(-347.448 -328.428)" class="a"></path></g><g _ngcontent-unx-c124="" transform="translate(443.908 499.978)"><path _ngcontent-unx-c124="" d="M388.165,329.281l14.123,8.375-10.495,5.9-14.123-8.375Z" transform="translate(-377.67 -329.281)" class="b"></path></g><g _ngcontent-unx-c124="" transform="translate(477.069 520.417)"><path _ngcontent-unx-c124="" d="M408.8,342l14.122,8.375-10.495,5.9L398.308,347.9Z" transform="translate(-398.308 -342.001)" class="a"></path></g><g _ngcontent-unx-c124="" transform="translate(682.109 407.134)"><path _ngcontent-unx-c124="" d="M536.415,271.5l14.122,8.375-10.495,5.9-14.122-8.375Z" transform="translate(-525.92 -271.497)" class="g"></path></g><g _ngcontent-unx-c124="" transform="translate(313.337 452.996)"><path _ngcontent-unx-c124="" d="M306.9,300.04l14.122,8.375-10.495,5.9-14.123-8.375Z" transform="translate(-296.406 -300.04)" class="a"></path></g><g _ngcontent-unx-c124="" transform="translate(281.132 309.008)"><path _ngcontent-unx-c124="" d="M314.029,229.351,281.77,210.727a1.652,1.652,0,0,0-1.668-.133l0-.021-3.13,1.808s1.387.5,2.2.8v23.492a6.216,6.216,0,0,0,2.595,4.958l30.833,17.8v2.757l3.16-1.82-.016-.006a2.3,2.3,0,0,0,.876-2.07V234.311A6.219,6.219,0,0,0,314.029,229.351Z" transform="translate(-275.989 -210.425)" class="p"></path><path _ngcontent-unx-c124="" d="M311.216,261.4l-32.259-18.624a6.216,6.216,0,0,1-2.595-4.958V213.835c0-1.91,1.162-2.789,2.595-1.962L311.216,230.5a6.219,6.219,0,0,1,2.595,4.96v23.985C313.81,261.355,312.649,262.234,311.216,261.4Z" transform="translate(-276.362 -209.736)" class="q"></path><g _ngcontent-unx-c124="" transform="translate(9.091 20.713)"><path _ngcontent-unx-c124="" d="M286.373,227.384c0,1.388-.975,1.951-2.177,1.256a4.81,4.81,0,0,1-2.176-3.769c0-1.388.974-1.951,2.176-1.256A4.811,4.811,0,0,1,286.373,227.384Z" transform="translate(-282.02 -223.317)" class="f"></path><path _ngcontent-unx-c124="" d="M290.476,229.753c0,1.388-.974,1.951-2.176,1.256a4.811,4.811,0,0,1-2.177-3.769c0-1.388.975-1.951,2.177-1.256A4.809,4.809,0,0,1,290.476,229.753Z" transform="translate(-279.531 -221.88)" class="f"></path><path _ngcontent-unx-c124="" d="M294.58,232.122c0,1.388-.974,1.951-2.176,1.257a4.8,4.8,0,0,1-2.177-3.769c0-1.388.974-1.951,2.177-1.256A4.81,4.81,0,0,1,294.58,232.122Z" transform="translate(-277.04 -220.442)" class="f"></path></g></g><g _ngcontent-unx-c124="" transform="translate(644.059 76.347)"><g _ngcontent-unx-c124="" transform="translate(0)"><path _ngcontent-unx-c124="" d="M539.907,84.548,507.648,65.924a1.653,1.653,0,0,0-1.668-.133l0-.021-3.128,1.808s1.385.5,2.2.8V91.873a6.217,6.217,0,0,0,2.6,4.958l30.832,17.8v2.757l3.162-1.82-.018-.006a2.3,2.3,0,0,0,.877-2.069V89.508A6.219,6.219,0,0,0,539.907,84.548Z" transform="translate(-501.866 -65.622)" class="b"></path><path _ngcontent-unx-c124="" d="M537.093,116.6,504.835,97.978a6.217,6.217,0,0,1-2.6-4.958V69.034c0-1.912,1.163-2.791,2.6-1.963L537.093,85.7a6.21,6.21,0,0,1,2.6,4.958V114.64C539.689,116.552,538.527,117.431,537.093,116.6Z" transform="translate(-502.239 -64.933)" class="a"></path></g><g _ngcontent-unx-c124="" transform="translate(9.091 20.713)"><path _ngcontent-unx-c124="" d="M512.25,82.581c0,1.388-.974,1.951-2.175,1.256a4.807,4.807,0,0,1-2.177-3.769c0-1.388.974-1.951,2.177-1.256A4.809,4.809,0,0,1,512.25,82.581Z" transform="translate(-507.897 -78.514)" class="f"></path><path _ngcontent-unx-c124="" d="M516.354,84.95c0,1.388-.975,1.951-2.177,1.256A4.809,4.809,0,0,1,512,82.437c0-1.388.974-1.951,2.176-1.256A4.811,4.811,0,0,1,516.354,84.95Z" transform="translate(-505.407 -77.077)" class="f"></path><path _ngcontent-unx-c124="" d="M520.458,87.319c0,1.388-.975,1.951-2.177,1.256a4.811,4.811,0,0,1-2.177-3.769c0-1.388.975-1.951,2.177-1.256A4.814,4.814,0,0,1,520.458,87.319Z" transform="translate(-502.917 -75.639)" class="f"></path></g></g><g _ngcontent-unx-c124="" transform="translate(618.283 57.118)"><g _ngcontent-unx-c124="" transform="translate(0 0)"><path _ngcontent-unx-c124="" d="M517.312,77.89c0-7.92-5.561-17.552-12.42-21.513-3.342-1.928-6.369-2.145-8.6-.956l-.006-.01-.133.077-.077.043-4.325,2.49,2.049-.129a11.2,11.2,0,0,0-1.326,5.654c0,7.921,5.561,17.552,12.422,21.513a11.589,11.589,0,0,0,5.09,1.669c-.281.541-.951,1.873-.951,1.873l4.5-2.6c.095-.051.188-.1.28-.161l.2-.117-.047.008C516.036,84.362,517.312,81.671,517.312,77.89Z" transform="translate(-482.83 -53.028)" class="r"></path><ellipse _ngcontent-unx-c124="" cx="10.141" cy="17.565" rx="10.141" ry="17.565" transform="translate(0 10.142) rotate(-30.002)" class="g"></ellipse></g><g _ngcontent-unx-c124="" transform="translate(13.743 10.407)"><path _ngcontent-unx-c124="" d="M498.2,77.853a7.434,7.434,0,0,1-1.687-1.3,5.453,5.453,0,0,1-1.065-1.589,7.843,7.843,0,0,1-.537-1.788,12.017,12.017,0,0,1-.161-2.066l2.286,1.321c0,.431.014.794.042,1.093a5.528,5.528,0,0,0,.164.924,2.29,2.29,0,0,0,.386.823,2.086,2.086,0,0,0,.664.574,1.011,1.011,0,0,0,.445.153.715.715,0,0,0,.321-.051.506.506,0,0,0,.215-.3,3.18,3.18,0,0,0,.137-.431,4.2,4.2,0,0,0,.066-.627c.013-.286.022-.521.024-.709s0-.464,0-.831q0-.6-.021-1.006a8.5,8.5,0,0,0-.095-.868,3.308,3.308,0,0,0-.206-.771,2.444,2.444,0,0,0-.366-.6,2.16,2.16,0,0,0-.577-.484.8.8,0,0,0-.813-.092,1.081,1.081,0,0,0-.471.713l-2-1.155.108-8.656,6.172,3.564v2.45l-4.181-2.413-.14,3.62a1.072,1.072,0,0,1,.75-.12,3.16,3.16,0,0,1,1.062.381A4.959,4.959,0,0,1,500.11,68.7a5.376,5.376,0,0,1,.946,1.512,8.494,8.494,0,0,1,.529,1.822,12.038,12.038,0,0,1,.173,2.1,16.625,16.625,0,0,1-.087,1.8,5.857,5.857,0,0,1-.32,1.39,1.816,1.816,0,0,1-.623.9,1.494,1.494,0,0,1-1.028.2A4.012,4.012,0,0,1,498.2,77.853Z" transform="translate(-494.75 -60.132)" class="f"></path></g></g><path _ngcontent-unx-c124="" d="M494.162,197.2l-5.9-9.576A1.606,1.606,0,1,1,491,185.942l4.324,7.021L509,185.786a1.607,1.607,0,1,1,1.493,2.846Z" transform="translate(133.198 83.263)" class="s"></path><path _ngcontent-unx-c124="" d="M494.117,180.922c-3.083,0-6.605-1.586-9.359-3.178-8.339-4.815-12.57-11.278-12.57-19.209,0-4.472,1.586-7.851,4.467-9.515s6.6-1.346,10.473.89c7.414,4.279,13.445,14.726,13.445,23.287,0,3.39-1.046,5.714-3.112,6.906A6.606,6.606,0,0,1,494.117,180.922Zm-13.4-29.961a5.049,5.049,0,0,0-2.566.651c-1.917,1.105-2.972,3.564-2.972,6.923,0,6.785,3.728,12.377,11.075,16.62,4.321,2.5,7.953,3.373,9.711,2.357,1.073-.62,1.618-2.071,1.618-4.316,0-7.608-5.36-16.893-11.949-20.7A10.1,10.1,0,0,0,480.717,150.961Z" transform="translate(123.587 60.686)" class="s"></path><path _ngcontent-unx-c124="" d="M502.235,167.24a1.494,1.494,0,0,1-1.158-.546c-7.38-9.017-22.053-15.6-22.2-15.664a1.5,1.5,0,0,1,1.211-2.735c.63.278,15.465,6.931,23.3,16.5a1.5,1.5,0,0,1-1.154,2.442Z" transform="translate(127.106 60.807)" class="s"></path></g></svg>